<!--?xml version="1.0" encoding="UTF-8" standalone="no"?-->

<!-- Generated by graphviz version 14.1.1 (20251213.1925)
 -->
<!-- Pages: 1 -->
<svg width="1386pt" height="2368pt" viewBox="0.00 0.00 1386.00 2368.00" xmlns="http://www.w3.org/2000/svg" xmlns:xlink="http://www.w3.org/1999/xlink">
<g id="graph0" class="graph" transform="scale(1 1) rotate(0) translate(4 2364.48)">
<polygon fill="#333537" stroke="none" points="-4,4 -4,-2364.48 1382.3,-2364.48 1382.3,4 -4,4"></polygon>
<g id="clust1" class="cluster">
<title>cluster_IvestigationPipelineAgent (Sequential Agent)</title>
<path fill="#333537" stroke="#ffffff" d="M261.1,-95.48C261.1,-95.48 1358.3,-95.48 1358.3,-95.48 1364.3,-95.48 1370.3,-101.48 1370.3,-107.48 1370.3,-107.48 1370.3,-2340.48 1370.3,-2340.48 1370.3,-2346.48 1364.3,-2352.48 1358.3,-2352.48 1358.3,-2352.48 261.1,-2352.48 261.1,-2352.48 255.1,-2352.48 249.1,-2346.48 249.1,-2340.48 249.1,-2340.48 249.1,-107.48 249.1,-107.48 249.1,-101.48 255.1,-95.48 261.1,-95.48"></path>
<text xml:space="preserve" text-anchor="middle" x="809.7" y="-2335.88" font-family="Times,serif" font-size="14.00" fill="#cccccc">IvestigationPipelineAgent (Sequential Agent)</text>
</g>
<g id="clust2" class="cluster">
<title>cluster_ParallelInvestigationAgent (Parallel Agent)</title>
<path fill="#333537" stroke="#ffffff" d="M279.29,-103.48C279.29,-103.48 797.64,-103.48 797.64,-103.48 803.64,-103.48 809.64,-109.48 809.64,-115.48 809.64,-115.48 809.64,-1140.48 809.64,-1140.48 809.64,-1146.48 803.64,-1152.48 797.64,-1152.48 797.64,-1152.48 279.29,-1152.48 279.29,-1152.48 273.29,-1152.48 267.29,-1146.48 267.29,-1140.48 267.29,-1140.48 267.29,-115.48 267.29,-115.48 267.29,-109.48 273.29,-103.48 279.29,-103.48"></path>
<text xml:space="preserve" text-anchor="middle" x="538.47" y="-1135.88" font-family="Times,serif" font-size="14.00" fill="#cccccc">ParallelInvestigationAgent (Parallel Agent)</text>
</g>
<g id="clust3" class="cluster">
<title>cluster_CandidateValidationLoopAgent (Loop Agent)</title>
<path fill="#333537" stroke="#ffffff" d="M269.1,-1584.48C269.1,-1584.48 1349.35,-1584.48 1349.35,-1584.48 1355.35,-1584.48 1361.35,-1590.48 1361.35,-1596.48 1361.35,-1596.48 1361.35,-2263.48 1361.35,-2263.48 1361.35,-2269.48 1355.35,-2275.48 1349.35,-2275.48 1349.35,-2275.48 269.1,-2275.48 269.1,-2275.48 263.1,-2275.48 257.1,-2269.48 257.1,-2263.48 257.1,-2263.48 257.1,-1596.48 257.1,-1596.48 257.1,-1590.48 263.1,-1584.48 269.1,-1584.48"></path>
<text xml:space="preserve" text-anchor="middle" x="809.23" y="-2258.88" font-family="Times,serif" font-size="14.00" fill="#cccccc">CandidateValidationLoopAgent (Loop Agent)</text>
</g>
<!-- ParallelInvestigationAgent -->
<g id="node1" class="node">
<title>ParallelInvestigationAgent</title>
<ellipse fill="none" stroke="black" cx="114.55" cy="-1313.48" rx="114.55" ry="18"></ellipse>
<text xml:space="preserve" text-anchor="middle" x="114.55" y="-1309.28" font-family="Times,serif" font-size="14.00">ParallelInvestigationAgent</text>
</g>
<!-- CandidateDiscoveryAgent -->
<g id="node2" class="node">
<title>CandidateDiscoveryAgent</title>
<ellipse fill="none" stroke="#cccccc" cx="391.73" cy="-1313.48" rx="125.55" ry="18"></ellipse>
<text xml:space="preserve" text-anchor="middle" x="391.73" y="-1309.28" font-family="Times,serif" font-size="14.00" fill="#cccccc">🤖 CandidateDiscoveryAgent</text>
</g>
<!-- ParallelInvestigationAgent&#45;&gt;CandidateDiscoveryAgent -->
<g id="edge1" class="edge">
<title>ParallelInvestigationAgent-&gt;CandidateDiscoveryAgent</title>
<path fill="none" stroke="#cccccc" d="M229.46,-1313.48C237.7,-1313.48 246.05,-1313.48 254.39,-1313.48"></path>
<polygon fill="#cccccc" stroke="#cccccc" points="254.24,-1316.98 264.24,-1313.48 254.24,-1309.98 254.24,-1316.98"></polygon>
</g>
<!-- CandidateValidationLoopAgent -->
<g id="node3" class="node">
<title>CandidateValidationLoopAgent</title>
<ellipse fill="none" stroke="black" cx="692.76" cy="-69.48" rx="134.94" ry="18"></ellipse>
<text xml:space="preserve" text-anchor="middle" x="692.76" y="-65.28" font-family="Times,serif" font-size="14.00">CandidateValidationLoopAgent</text>
</g>
<!-- CandidateDiscoveryAgent&#45;&gt;CandidateValidationLoopAgent -->
<g id="edge2" class="edge">
<title>CandidateDiscoveryAgent-&gt;CandidateValidationLoopAgent</title>
<path fill="none" stroke="#cccccc" d="M414.1,-1295.32C443.89,-1268.49 496.66,-1215.08 518.35,-1156.48 559.13,-1046.27 479.1,-189.74 554.35,-99.48 559.02,-93.88 564.47,-89.18 570.45,-85.24"></path>
<polygon fill="#cccccc" stroke="#cccccc" points="571.98,-88.39 578.94,-80.41 568.52,-82.31 571.98,-88.39"></polygon>
</g>
<!-- get_current_time -->
<g id="node8" class="node">
<title>get_current_time</title>
<path fill="none" stroke="#cccccc" d="M745.33,-795.48C745.33,-795.48 640.2,-795.48 640.2,-795.48 634.2,-795.48 628.2,-789.48 628.2,-783.48 628.2,-783.48 628.2,-771.48 628.2,-771.48 628.2,-765.48 634.2,-759.48 640.2,-759.48 640.2,-759.48 745.33,-759.48 745.33,-759.48 751.33,-759.48 757.33,-765.48 757.33,-771.48 757.33,-771.48 757.33,-783.48 757.33,-783.48 757.33,-789.48 751.33,-795.48 745.33,-795.48"></path>
<text xml:space="preserve" text-anchor="middle" x="692.76" y="-773.28" font-family="Times,serif" font-size="14.00" fill="#cccccc">🔧 get_current_time</text>
</g>
<!-- CandidateDiscoveryAgent&#45;&gt;get_current_time -->
<g id="edge28" class="edge">
<title>CandidateDiscoveryAgent-&gt;get_current_time</title>
<path fill="none" stroke="#cccccc" d="M413.08,-1295.56C442.11,-1268.63 494.55,-1214.63 518.35,-1156.48 548.12,-1083.7 501.37,-862.58 554.35,-804.48 572.78,-784.27 601.55,-776.61 628.01,-774.37"></path>
</g>
<!-- get_attacker_src_ip -->
<g id="node11" class="node">
<title>get_attacker_src_ip</title>
<path fill="none" stroke="#cccccc" d="M752.32,-903.48C752.32,-903.48 633.21,-903.48 633.21,-903.48 627.21,-903.48 621.21,-897.48 621.21,-891.48 621.21,-891.48 621.21,-879.48 621.21,-879.48 621.21,-873.48 627.21,-867.48 633.21,-867.48 633.21,-867.48 752.32,-867.48 752.32,-867.48 758.32,-867.48 764.32,-873.48 764.32,-879.48 764.32,-879.48 764.32,-891.48 764.32,-891.48 764.32,-897.48 758.32,-903.48 752.32,-903.48"></path>
<text xml:space="preserve" text-anchor="middle" x="692.76" y="-881.28" font-family="Times,serif" font-size="14.00" fill="#cccccc">🔧 get_attacker_src_ip</text>
</g>
<!-- CandidateDiscoveryAgent&#45;&gt;get_attacker_src_ip -->
<g id="edge39" class="edge">
<title>CandidateDiscoveryAgent-&gt;get_attacker_src_ip</title>
<path fill="none" stroke="#cccccc" d="M412.73,-1295.41C441.35,-1268.3 493.26,-1214.09 518.35,-1156.48 562.11,-1055.97 478.7,-991.81 554.35,-912.48 571.46,-894.53 596.75,-886.6 620.99,-883.55"></path>
</g>
<!-- get_attacker_asn -->
<g id="node13" class="node">
<title>get_attacker_asn</title>
<path fill="none" stroke="#cccccc" d="M744.55,-957.48C744.55,-957.48 640.98,-957.48 640.98,-957.48 634.98,-957.48 628.98,-951.48 628.98,-945.48 628.98,-945.48 628.98,-933.48 628.98,-933.48 628.98,-927.48 634.98,-921.48 640.98,-921.48 640.98,-921.48 744.55,-921.48 744.55,-921.48 750.55,-921.48 756.55,-927.48 756.55,-933.48 756.55,-933.48 756.55,-945.48 756.55,-945.48 756.55,-951.48 750.55,-957.48 744.55,-957.48"></path>
<text xml:space="preserve" text-anchor="middle" x="692.76" y="-935.28" font-family="Times,serif" font-size="14.00" fill="#cccccc">🔧 get_attacker_asn</text>
</g>
<!-- CandidateDiscoveryAgent&#45;&gt;get_attacker_asn -->
<g id="edge38" class="edge">
<title>CandidateDiscoveryAgent-&gt;get_attacker_asn</title>
<path fill="none" stroke="#cccccc" d="M412.43,-1295.28C440.65,-1267.99 492.1,-1213.57 518.35,-1156.48 554.26,-1078.39 493.78,-1027.46 554.35,-966.48 573.62,-947.07 602.5,-939.51 628.81,-937.12"></path>
</g>
<!-- get_alert_signature -->
<g id="node15" class="node">
<title>get_alert_signature</title>
<path fill="none" stroke="#cccccc" d="M751.16,-1065.48C751.16,-1065.48 634.37,-1065.48 634.37,-1065.48 628.37,-1065.48 622.37,-1059.48 622.37,-1053.48 622.37,-1053.48 622.37,-1041.48 622.37,-1041.48 622.37,-1035.48 628.37,-1029.48 634.37,-1029.48 634.37,-1029.48 751.16,-1029.48 751.16,-1029.48 757.16,-1029.48 763.16,-1035.48 763.16,-1041.48 763.16,-1041.48 763.16,-1053.48 763.16,-1053.48 763.16,-1059.48 757.16,-1065.48 751.16,-1065.48"></path>
<text xml:space="preserve" text-anchor="middle" x="692.76" y="-1043.28" font-family="Times,serif" font-size="14.00" fill="#cccccc">🔧 get_alert_signature</text>
</g>
<!-- CandidateDiscoveryAgent&#45;&gt;get_alert_signature -->
<g id="edge35" class="edge">
<title>CandidateDiscoveryAgent-&gt;get_alert_signature</title>
<path fill="none" stroke="#cccccc" d="M409.9,-1295.33C435.84,-1267.25 485.45,-1210.83 518.35,-1156.48 538.96,-1122.43 523.29,-1099.37 554.35,-1074.48 573.32,-1059.27 598.44,-1051.83 622.01,-1048.4"></path>
</g>
<!-- get_cve -->
<g id="node16" class="node">
<title>get_cve</title>
<path fill="none" stroke="#cccccc" d="M719.28,-1119.48C719.28,-1119.48 666.25,-1119.48 666.25,-1119.48 660.25,-1119.48 654.25,-1113.48 654.25,-1107.48 654.25,-1107.48 654.25,-1095.48 654.25,-1095.48 654.25,-1089.48 660.25,-1083.48 666.25,-1083.48 666.25,-1083.48 719.28,-1083.48 719.28,-1083.48 725.28,-1083.48 731.28,-1089.48 731.28,-1095.48 731.28,-1095.48 731.28,-1107.48 731.28,-1107.48 731.28,-1113.48 725.28,-1119.48 719.28,-1119.48"></path>
<text xml:space="preserve" text-anchor="middle" x="692.76" y="-1097.28" font-family="Times,serif" font-size="14.00" fill="#cccccc">🔧 get_cve</text>
</g>
<!-- CandidateDiscoveryAgent&#45;&gt;get_cve -->
<g id="edge36" class="edge">
<title>CandidateDiscoveryAgent-&gt;get_cve</title>
<path fill="none" stroke="#cccccc" d="M407.11,-1295.16C443,-1249.65 535,-1134.36 554.35,-1123.48 584.88,-1106.3 624.91,-1101.53 653.89,-1100.61"></path>
</g>
<!-- suricata_lenient_phrase_search -->
<g id="node18" class="node">
<title>suricata_lenient_phrase_search</title>
<path fill="none" stroke="#cccccc" d="M784.97,-1011.48C784.97,-1011.48 600.56,-1011.48 600.56,-1011.48 594.56,-1011.48 588.56,-1005.48 588.56,-999.48 588.56,-999.48 588.56,-987.48 588.56,-987.48 588.56,-981.48 594.56,-975.48 600.56,-975.48 600.56,-975.48 784.97,-975.48 784.97,-975.48 790.97,-975.48 796.97,-981.48 796.97,-987.48 796.97,-987.48 796.97,-999.48 796.97,-999.48 796.97,-1005.48 790.97,-1011.48 784.97,-1011.48"></path>
<text xml:space="preserve" text-anchor="middle" x="692.76" y="-989.28" font-family="Times,serif" font-size="14.00" fill="#cccccc">🔧 suricata_lenient_phrase_search</text>
</g>
<!-- CandidateDiscoveryAgent&#45;&gt;suricata_lenient_phrase_search -->
<g id="edge37" class="edge">
<title>CandidateDiscoveryAgent-&gt;suricata_lenient_phrase_search</title>
<path fill="none" stroke="#cccccc" d="M411.43,-1295.48C438.89,-1268.02 489.91,-1212.9 518.35,-1156.48 546.49,-1100.64 508.73,-1063.24 554.35,-1020.48 564.02,-1011.42 575.8,-1004.99 588.35,-1000.49"></path>
</g>
<!-- get_src_ip_reputation -->
<g id="node30" class="node">
<title>get_src_ip_reputation</title>
<path fill="none" stroke="#cccccc" d="M758.55,-1520.48C758.55,-1520.48 626.98,-1520.48 626.98,-1520.48 620.98,-1520.48 614.98,-1514.48 614.98,-1508.48 614.98,-1508.48 614.98,-1496.48 614.98,-1496.48 614.98,-1490.48 620.98,-1484.48 626.98,-1484.48 626.98,-1484.48 758.55,-1484.48 758.55,-1484.48 764.55,-1484.48 770.55,-1490.48 770.55,-1496.48 770.55,-1496.48 770.55,-1508.48 770.55,-1508.48 770.55,-1514.48 764.55,-1520.48 758.55,-1520.48"></path>
<text xml:space="preserve" text-anchor="middle" x="692.76" y="-1498.28" font-family="Times,serif" font-size="14.00" fill="#cccccc">🔧 get_src_ip_reputation</text>
</g>
<!-- CandidateDiscoveryAgent&#45;&gt;get_src_ip_reputation -->
<g id="edge29" class="edge">
<title>CandidateDiscoveryAgent-&gt;get_src_ip_reputation</title>
<path fill="none" stroke="#cccccc" d="M405.17,-1331.79C429.49,-1366.01 486.88,-1439.47 554.35,-1475.48 572.69,-1485.27 594.1,-1491.53 614.5,-1495.53"></path>
</g>
<!-- kibanna_discover_query -->
<g id="node31" class="node">
<title>kibanna_discover_query</title>
<path fill="none" stroke="#cccccc" d="M766.33,-1682.48C766.33,-1682.48 619.2,-1682.48 619.2,-1682.48 613.2,-1682.48 607.2,-1676.48 607.2,-1670.48 607.2,-1670.48 607.2,-1658.48 607.2,-1658.48 607.2,-1652.48 613.2,-1646.48 619.2,-1646.48 619.2,-1646.48 766.33,-1646.48 766.33,-1646.48 772.33,-1646.48 778.33,-1652.48 778.33,-1658.48 778.33,-1658.48 778.33,-1670.48 778.33,-1670.48 778.33,-1676.48 772.33,-1682.48 766.33,-1682.48"></path>
<text xml:space="preserve" text-anchor="middle" x="692.76" y="-1660.28" font-family="Times,serif" font-size="14.00" fill="#cccccc">🔧 kibanna_discover_query</text>
</g>
<!-- CandidateDiscoveryAgent&#45;&gt;kibanna_discover_query -->
<g id="edge30" class="edge">
<title>CandidateDiscoveryAgent-&gt;kibanna_discover_query</title>
<path fill="none" stroke="#cccccc" d="M401.23,-1331.63C432.61,-1398.4 540.69,-1627.07 554.35,-1637.48 569.43,-1648.97 588.08,-1655.97 606.72,-1660.14"></path>
</g>
<!-- custom_basic_search -->
<g id="node32" class="node">
<title>custom_basic_search</title>
<path fill="none" stroke="#cccccc" d="M756.99,-1736.48C756.99,-1736.48 628.54,-1736.48 628.54,-1736.48 622.54,-1736.48 616.54,-1730.48 616.54,-1724.48 616.54,-1724.48 616.54,-1712.48 616.54,-1712.48 616.54,-1706.48 622.54,-1700.48 628.54,-1700.48 628.54,-1700.48 756.99,-1700.48 756.99,-1700.48 762.99,-1700.48 768.99,-1706.48 768.99,-1712.48 768.99,-1712.48 768.99,-1724.48 768.99,-1724.48 768.99,-1730.48 762.99,-1736.48 756.99,-1736.48"></path>
<text xml:space="preserve" text-anchor="middle" x="692.76" y="-1714.28" font-family="Times,serif" font-size="14.00" fill="#cccccc">🔧 custom_basic_search</text>
</g>
<!-- CandidateDiscoveryAgent&#45;&gt;custom_basic_search -->
<g id="edge31" class="edge">
<title>CandidateDiscoveryAgent-&gt;custom_basic_search</title>
<path fill="none" stroke="#cccccc" d="M402.38,-1331.9C424.63,-1374.74 480.47,-1484.73 518.35,-1580.48 537.43,-1628.7 515.55,-1657.06 554.35,-1691.48 571.26,-1706.48 594.02,-1714.15 616.15,-1717.83"></path>
</g>
<!-- two_level_terms_aggregated -->
<g id="node33" class="node">
<title>two_level_terms_aggregated</title>
<path fill="none" stroke="#cccccc" d="M778.37,-1790.48C778.37,-1790.48 607.16,-1790.48 607.16,-1790.48 601.16,-1790.48 595.16,-1784.48 595.16,-1778.48 595.16,-1778.48 595.16,-1766.48 595.16,-1766.48 595.16,-1760.48 601.16,-1754.48 607.16,-1754.48 607.16,-1754.48 778.37,-1754.48 778.37,-1754.48 784.37,-1754.48 790.37,-1760.48 790.37,-1766.48 790.37,-1766.48 790.37,-1778.48 790.37,-1778.48 790.37,-1784.48 784.37,-1790.48 778.37,-1790.48"></path>
<text xml:space="preserve" text-anchor="middle" x="692.76" y="-1768.28" font-family="Times,serif" font-size="14.00" fill="#cccccc">🔧 two_level_terms_aggregated</text>
</g>
<!-- CandidateDiscoveryAgent&#45;&gt;two_level_terms_aggregated -->
<g id="edge32" class="edge">
<title>CandidateDiscoveryAgent-&gt;two_level_terms_aggregated</title>
<path fill="none" stroke="#cccccc" d="M403.05,-1331.65C426.68,-1373.98 485.25,-1482.97 518.35,-1580.48 542.48,-1651.55 500.73,-1692.96 554.35,-1745.48 565.55,-1756.45 579.83,-1763.61 594.93,-1768.18"></path>
</g>
<!-- match_query -->
<g id="node34" class="node">
<title>match_query</title>
<path fill="none" stroke="#cccccc" d="M734.06,-1844.48C734.06,-1844.48 651.47,-1844.48 651.47,-1844.48 645.47,-1844.48 639.47,-1838.48 639.47,-1832.48 639.47,-1832.48 639.47,-1820.48 639.47,-1820.48 639.47,-1814.48 645.47,-1808.48 651.47,-1808.48 651.47,-1808.48 734.06,-1808.48 734.06,-1808.48 740.06,-1808.48 746.06,-1814.48 746.06,-1820.48 746.06,-1820.48 746.06,-1832.48 746.06,-1832.48 746.06,-1838.48 740.06,-1844.48 734.06,-1844.48"></path>
<text xml:space="preserve" text-anchor="middle" x="692.76" y="-1822.28" font-family="Times,serif" font-size="14.00" fill="#cccccc">🔧 match_query</text>
</g>
<!-- CandidateDiscoveryAgent&#45;&gt;match_query -->
<g id="edge33" class="edge">
<title>CandidateDiscoveryAgent-&gt;match_query</title>
<path fill="none" stroke="#cccccc" d="M403.58,-1331.85C428.07,-1374.17 487.86,-1482.39 518.35,-1580.48 547.63,-1674.67 485.69,-1728.65 554.35,-1799.48 576.01,-1821.82 610.36,-1828.57 639.3,-1829.74"></path>
</g>
<!-- complete_custom_search -->
<g id="node35" class="node">
<title>complete_custom_search</title>
<path fill="none" stroke="#cccccc" d="M768.27,-1628.48C768.27,-1628.48 617.26,-1628.48 617.26,-1628.48 611.26,-1628.48 605.26,-1622.48 605.26,-1616.48 605.26,-1616.48 605.26,-1604.48 605.26,-1604.48 605.26,-1598.48 611.26,-1592.48 617.26,-1592.48 617.26,-1592.48 768.27,-1592.48 768.27,-1592.48 774.27,-1592.48 780.27,-1598.48 780.27,-1604.48 780.27,-1604.48 780.27,-1616.48 780.27,-1616.48 780.27,-1622.48 774.27,-1628.48 768.27,-1628.48"></path>
<text xml:space="preserve" text-anchor="middle" x="692.76" y="-1606.28" font-family="Times,serif" font-size="14.00" fill="#cccccc">🔧 complete_custom_search</text>
</g>
<!-- CandidateDiscoveryAgent&#45;&gt;complete_custom_search -->
<g id="edge34" class="edge">
<title>CandidateDiscoveryAgent-&gt;complete_custom_search</title>
<path fill="none" stroke="#cccccc" d="M397.51,-1331.64C411.75,-1381.9 458.99,-1523.37 554.35,-1588.48 569.21,-1598.63 587.06,-1604.73 604.9,-1608.29"></path>
</g>
<!-- timeline_counts -->
<g id="node36" class="node">
<title>timeline_counts</title>
<path fill="none" stroke="#cccccc" d="M742.23,-1574.48C742.23,-1574.48 643.3,-1574.48 643.3,-1574.48 637.3,-1574.48 631.3,-1568.48 631.3,-1562.48 631.3,-1562.48 631.3,-1550.48 631.3,-1550.48 631.3,-1544.48 637.3,-1538.48 643.3,-1538.48 643.3,-1538.48 742.23,-1538.48 742.23,-1538.48 748.23,-1538.48 754.23,-1544.48 754.23,-1550.48 754.23,-1550.48 754.23,-1562.48 754.23,-1562.48 754.23,-1568.48 748.23,-1574.48 742.23,-1574.48"></path>
<text xml:space="preserve" text-anchor="middle" x="692.76" y="-1552.28" font-family="Times,serif" font-size="14.00" fill="#cccccc">🔧 timeline_counts</text>
</g>
<!-- CandidateDiscoveryAgent&#45;&gt;timeline_counts -->
<g id="edge40" class="edge">
<title>CandidateDiscoveryAgent-&gt;timeline_counts</title>
<path fill="none" stroke="#cccccc" d="M400.72,-1331.85C420.2,-1374.27 474.45,-1479.25 554.35,-1529.48 577.09,-1543.78 605.81,-1550.76 631.1,-1554.08"></path>
</g>
<!-- field_presence_check -->
<g id="node37" class="node">
<title>field_presence_check</title>
<path fill="none" stroke="#cccccc" d="M758.15,-1196.48C758.15,-1196.48 627.38,-1196.48 627.38,-1196.48 621.38,-1196.48 615.38,-1190.48 615.38,-1184.48 615.38,-1184.48 615.38,-1172.48 615.38,-1172.48 615.38,-1166.48 621.38,-1160.48 627.38,-1160.48 627.38,-1160.48 758.15,-1160.48 758.15,-1160.48 764.15,-1160.48 770.15,-1166.48 770.15,-1172.48 770.15,-1172.48 770.15,-1184.48 770.15,-1184.48 770.15,-1190.48 764.15,-1196.48 758.15,-1196.48"></path>
<text xml:space="preserve" text-anchor="middle" x="692.76" y="-1174.28" font-family="Times,serif" font-size="14.00" fill="#cccccc">🔧 field_presence_check</text>
</g>
<!-- CandidateDiscoveryAgent&#45;&gt;field_presence_check -->
<g id="edge41" class="edge">
<title>CandidateDiscoveryAgent-&gt;field_presence_check</title>
<path fill="none" stroke="#cccccc" d="M413.63,-1295.48C443.01,-1271.18 499.14,-1228.27 554.35,-1205.48 573.34,-1197.64 594.76,-1192.03 614.95,-1188.04"></path>
</g>
<!-- top_suricata_signatures -->
<g id="node38" class="node">
<title>top_suricata_signatures</title>
<path fill="none" stroke="#cccccc" d="M763.61,-1250.48C763.61,-1250.48 621.92,-1250.48 621.92,-1250.48 615.92,-1250.48 609.92,-1244.48 609.92,-1238.48 609.92,-1238.48 609.92,-1226.48 609.92,-1226.48 609.92,-1220.48 615.92,-1214.48 621.92,-1214.48 621.92,-1214.48 763.61,-1214.48 763.61,-1214.48 769.61,-1214.48 775.61,-1220.48 775.61,-1226.48 775.61,-1226.48 775.61,-1238.48 775.61,-1238.48 775.61,-1244.48 769.61,-1250.48 763.61,-1250.48"></path>
<text xml:space="preserve" text-anchor="middle" x="692.76" y="-1228.28" font-family="Times,serif" font-size="14.00" fill="#cccccc">🔧 top_suricata_signatures</text>
</g>
<!-- CandidateDiscoveryAgent&#45;&gt;top_suricata_signatures -->
<g id="edge42" class="edge">
<title>CandidateDiscoveryAgent-&gt;top_suricata_signatures</title>
<path fill="none" stroke="#cccccc" d="M438.58,-1296.41C470.68,-1284.89 514.73,-1269.94 554.35,-1259.48 572.1,-1254.79 591.33,-1250.52 609.62,-1246.83"></path>
</g>
<!-- top_src_ips_for_cve -->
<g id="node39" class="node">
<title>top_src_ips_for_cve</title>
<path fill="none" stroke="#cccccc" d="M754.67,-1304.48C754.67,-1304.48 630.86,-1304.48 630.86,-1304.48 624.86,-1304.48 618.86,-1298.48 618.86,-1292.48 618.86,-1292.48 618.86,-1280.48 618.86,-1280.48 618.86,-1274.48 624.86,-1268.48 630.86,-1268.48 630.86,-1268.48 754.67,-1268.48 754.67,-1268.48 760.67,-1268.48 766.67,-1274.48 766.67,-1280.48 766.67,-1280.48 766.67,-1292.48 766.67,-1292.48 766.67,-1298.48 760.67,-1304.48 754.67,-1304.48"></path>
<text xml:space="preserve" text-anchor="middle" x="692.76" y="-1282.28" font-family="Times,serif" font-size="14.00" fill="#cccccc">🔧 top_src_ips_for_cve</text>
</g>
<!-- CandidateDiscoveryAgent&#45;&gt;top_src_ips_for_cve -->
<g id="edge43" class="edge">
<title>CandidateDiscoveryAgent-&gt;top_src_ips_for_cve</title>
<path fill="none" stroke="#cccccc" d="M499,-1303.88C538.62,-1300.31 582.67,-1296.33 618.65,-1293.08"></path>
</g>
<!-- top_dest_ports_for_cve -->
<g id="node40" class="node">
<title>top_dest_ports_for_cve</title>
<path fill="none" stroke="#cccccc" d="M763.61,-1358.48C763.61,-1358.48 621.92,-1358.48 621.92,-1358.48 615.92,-1358.48 609.92,-1352.48 609.92,-1346.48 609.92,-1346.48 609.92,-1334.48 609.92,-1334.48 609.92,-1328.48 615.92,-1322.48 621.92,-1322.48 621.92,-1322.48 763.61,-1322.48 763.61,-1322.48 769.61,-1322.48 775.61,-1328.48 775.61,-1334.48 775.61,-1334.48 775.61,-1346.48 775.61,-1346.48 775.61,-1352.48 769.61,-1358.48 763.61,-1358.48"></path>
<text xml:space="preserve" text-anchor="middle" x="692.76" y="-1336.28" font-family="Times,serif" font-size="14.00" fill="#cccccc">🔧 top_dest_ports_for_cve</text>
</g>
<!-- CandidateDiscoveryAgent&#45;&gt;top_dest_ports_for_cve -->
<g id="edge44" class="edge">
<title>CandidateDiscoveryAgent-&gt;top_dest_ports_for_cve</title>
<path fill="none" stroke="#cccccc" d="M499,-1323.07C535.43,-1326.36 575.6,-1329.99 609.81,-1333.08"></path>
</g>
<!-- src_ip_to_http_url -->
<g id="node41" class="node">
<title>src_ip_to_http_url</title>
<path fill="none" stroke="#cccccc" d="M749.23,-1412.48C749.23,-1412.48 636.3,-1412.48 636.3,-1412.48 630.3,-1412.48 624.3,-1406.48 624.3,-1400.48 624.3,-1400.48 624.3,-1388.48 624.3,-1388.48 624.3,-1382.48 630.3,-1376.48 636.3,-1376.48 636.3,-1376.48 749.23,-1376.48 749.23,-1376.48 755.23,-1376.48 761.23,-1382.48 761.23,-1388.48 761.23,-1388.48 761.23,-1400.48 761.23,-1400.48 761.23,-1406.48 755.23,-1412.48 749.23,-1412.48"></path>
<text xml:space="preserve" text-anchor="middle" x="692.76" y="-1390.28" font-family="Times,serif" font-size="14.00" fill="#cccccc">🔧 src_ip_to_http_url</text>
</g>
<!-- CandidateDiscoveryAgent&#45;&gt;src_ip_to_http_url -->
<g id="edge45" class="edge">
<title>CandidateDiscoveryAgent-&gt;src_ip_to_http_url</title>
<path fill="none" stroke="#cccccc" d="M438.58,-1330.55C470.68,-1342.07 514.73,-1357.01 554.35,-1367.48 576.8,-1373.41 601.62,-1378.67 623.92,-1382.94"></path>
</g>
<!-- top_http_urls_for_src_ip -->
<g id="node42" class="node">
<title>top_http_urls_for_src_ip</title>
<path fill="none" stroke="#cccccc" d="M767.12,-1466.48C767.12,-1466.48 618.41,-1466.48 618.41,-1466.48 612.41,-1466.48 606.41,-1460.48 606.41,-1454.48 606.41,-1454.48 606.41,-1442.48 606.41,-1442.48 606.41,-1436.48 612.41,-1430.48 618.41,-1430.48 618.41,-1430.48 767.12,-1430.48 767.12,-1430.48 773.12,-1430.48 779.12,-1436.48 779.12,-1442.48 779.12,-1442.48 779.12,-1454.48 779.12,-1454.48 779.12,-1460.48 773.12,-1466.48 767.12,-1466.48"></path>
<text xml:space="preserve" text-anchor="middle" x="692.76" y="-1444.28" font-family="Times,serif" font-size="14.00" fill="#cccccc">🔧 top_http_urls_for_src_ip</text>
</g>
<!-- CandidateDiscoveryAgent&#45;&gt;top_http_urls_for_src_ip -->
<g id="edge46" class="edge">
<title>CandidateDiscoveryAgent-&gt;top_http_urls_for_src_ip</title>
<path fill="none" stroke="#cccccc" d="M413.63,-1331.47C443.01,-1355.78 499.14,-1398.68 554.35,-1421.48 570.53,-1428.16 588.48,-1433.22 605.92,-1437.04"></path>
</g>
<!-- OSINTAgent -->
<g id="node4" class="node">
<title>OSINTAgent</title>
<ellipse fill="none" stroke="#cccccc" cx="391.73" cy="-2301.48" rx="75.14" ry="18"></ellipse>
<text xml:space="preserve" text-anchor="middle" x="391.73" y="-2297.28" font-family="Times,serif" font-size="14.00" fill="#cccccc">🤖 OSINTAgent</text>
</g>
<!-- CandidateValidationLoopAgent&#45;&gt;OSINTAgent -->
<g id="edge3" class="edge">
<title>CandidateValidationLoopAgent-&gt;OSINTAgent</title>
<path fill="none" stroke="#cccccc" d="M580.11,-79.54C570.27,-84.39 561.39,-90.88 554.35,-99.48 477.6,-193.19 597.03,-2187.38 518.35,-2279.48 507.77,-2291.86 492.91,-2298.94 477.09,-2302.75"></path>
<polygon fill="#cccccc" stroke="#cccccc" points="476.67,-2299.26 467.52,-2304.6 478,-2306.14 476.67,-2299.26"></polygon>
</g>
<!-- ReportAgent -->
<g id="node5" class="node">
<title>ReportAgent</title>
<ellipse fill="#0f5223" stroke="#0f5223" cx="692.76" cy="-2301.48" rx="72.99" ry="18"></ellipse>
<text xml:space="preserve" text-anchor="middle" x="692.76" y="-2297.28" font-family="Times,serif" font-size="14.00" fill="#cccccc">🤖 ReportAgent</text>
</g>
<!-- OSINTAgent&#45;&gt;ReportAgent -->
<g id="edge4" class="edge">
<title>OSINTAgent-&gt;ReportAgent</title>
<path fill="none" stroke="#cccccc" d="M467.03,-2301.48C509.83,-2301.48 563.76,-2301.48 608.06,-2301.48"></path>
<polygon fill="#cccccc" stroke="#cccccc" points="607.88,-2304.98 617.88,-2301.48 607.88,-2297.98 607.88,-2304.98"></polygon>
</g>
<!-- search_agent -->
<g id="node53" class="node">
<title>search_agent</title>
<path fill="none" stroke="#cccccc" d="M734.05,-2242.48C734.05,-2242.48 651.48,-2242.48 651.48,-2242.48 645.48,-2242.48 639.48,-2236.48 639.48,-2230.48 639.48,-2230.48 639.48,-2218.48 639.48,-2218.48 639.48,-2212.48 645.48,-2206.48 651.48,-2206.48 651.48,-2206.48 734.05,-2206.48 734.05,-2206.48 740.05,-2206.48 746.05,-2212.48 746.05,-2218.48 746.05,-2218.48 746.05,-2230.48 746.05,-2230.48 746.05,-2236.48 740.05,-2242.48 734.05,-2242.48"></path>
<text xml:space="preserve" text-anchor="middle" x="692.76" y="-2220.28" font-family="Times,serif" font-size="14.00" fill="#cccccc">🤖 search_agent</text>
</g>
<!-- OSINTAgent&#45;&gt;search_agent -->
<g id="edge70" class="edge">
<title>OSINTAgent-&gt;search_agent</title>
<path fill="none" stroke="#cccccc" d="M464.05,-2296.16C482.4,-2292.89 501.66,-2287.7 518.35,-2279.48 537.82,-2269.89 534.81,-2255.93 554.35,-2246.48 580.56,-2233.8 612.54,-2228.19 639.05,-2225.79"></path>
</g>
<!-- SaveReportAgent -->
<g id="node6" class="node">
<title>SaveReportAgent</title>
<ellipse fill="none" stroke="#cccccc" cx="1013.12" cy="-2301.48" rx="91.76" ry="18"></ellipse>
<text xml:space="preserve" text-anchor="middle" x="1013.12" y="-2297.28" font-family="Times,serif" font-size="14.00" fill="#cccccc">🤖 SaveReportAgent</text>
</g>
<!-- ReportAgent&#45;&gt;SaveReportAgent -->
<g id="edge5" class="edge">
<title>ReportAgent-&gt;SaveReportAgent</title>
<path fill="none" stroke="#cccccc" d="M766,-2301.48C808.46,-2301.48 862.81,-2301.48 909.64,-2301.48"></path>
<polygon fill="#cccccc" stroke="#cccccc" points="909.54,-2304.98 919.54,-2301.48 909.54,-2297.98 909.54,-2304.98"></polygon>
</g>
<!-- investigation_write_file -->
<g id="node55" class="node">
<title>investigation_write_file</title>
<path fill="none" stroke="#cccccc" d="M1350.3,-2319.48C1350.3,-2319.48 1207.05,-2319.48 1207.05,-2319.48 1201.05,-2319.48 1195.05,-2313.48 1195.05,-2307.48 1195.05,-2307.48 1195.05,-2295.48 1195.05,-2295.48 1195.05,-2289.48 1201.05,-2283.48 1207.05,-2283.48 1207.05,-2283.48 1350.3,-2283.48 1350.3,-2283.48 1356.3,-2283.48 1362.3,-2289.48 1362.3,-2295.48 1362.3,-2295.48 1362.3,-2307.48 1362.3,-2307.48 1362.3,-2313.48 1356.3,-2319.48 1350.3,-2319.48"></path>
<text xml:space="preserve" text-anchor="middle" x="1278.68" y="-2297.28" font-family="Times,serif" font-size="14.00" fill="#cccccc">🔧 investigation_write_file</text>
</g>
<!-- SaveReportAgent&#45;&gt;investigation_write_file -->
<g id="edge71" class="edge">
<title>SaveReportAgent-&gt;investigation_write_file</title>
<path fill="none" stroke="#cccccc" d="M1105.19,-2301.48C1134.2,-2301.48 1166.14,-2301.48 1194.56,-2301.48"></path>
</g>
<!-- BaselineAgent -->
<g id="node7" class="node">
<title>BaselineAgent</title>
<ellipse fill="none" stroke="#cccccc" cx="391.73" cy="-345.48" rx="79.96" ry="18"></ellipse>
<text xml:space="preserve" text-anchor="middle" x="391.73" y="-341.28" font-family="Times,serif" font-size="14.00" fill="#cccccc">🤖 BaselineAgent</text>
</g>
<!-- BaselineAgent&#45;&gt;get_current_time -->
<g id="edge6" class="edge">
<title>BaselineAgent-&gt;get_current_time</title>
<path fill="none" stroke="#cccccc" d="M471.74,-347.15C489.35,-351.32 506.34,-358.98 518.35,-372.48 574.43,-435.52 497.71,-687.93 554.35,-750.48 572.71,-770.75 601.47,-778.42 627.94,-780.65"></path>
</g>
<!-- get_total_attacks -->
<g id="node9" class="node">
<title>get_total_attacks</title>
<path fill="none" stroke="#cccccc" d="M744.94,-201.48C744.94,-201.48 640.59,-201.48 640.59,-201.48 634.59,-201.48 628.59,-195.48 628.59,-189.48 628.59,-189.48 628.59,-177.48 628.59,-177.48 628.59,-171.48 634.59,-165.48 640.59,-165.48 640.59,-165.48 744.94,-165.48 744.94,-165.48 750.94,-165.48 756.94,-171.48 756.94,-177.48 756.94,-177.48 756.94,-189.48 756.94,-189.48 756.94,-195.48 750.94,-201.48 744.94,-201.48"></path>
<text xml:space="preserve" text-anchor="middle" x="692.76" y="-179.28" font-family="Times,serif" font-size="14.00" fill="#cccccc">🔧 get_total_attacks</text>
</g>
<!-- BaselineAgent&#45;&gt;get_total_attacks -->
<g id="edge7" class="edge">
<title>BaselineAgent-&gt;get_total_attacks</title>
<path fill="none" stroke="#cccccc" d="M408.17,-327.76C434.84,-298.37 492.64,-239.9 554.35,-210.48 577.17,-199.59 604.13,-193.1 628.1,-189.22"></path>
</g>
<!-- get_top_countries -->
<g id="node10" class="node">
<title>get_top_countries</title>
<path fill="none" stroke="#cccccc" d="M747.67,-147.48C747.67,-147.48 637.86,-147.48 637.86,-147.48 631.86,-147.48 625.86,-141.48 625.86,-135.48 625.86,-135.48 625.86,-123.48 625.86,-123.48 625.86,-117.48 631.86,-111.48 637.86,-111.48 637.86,-111.48 747.67,-111.48 747.67,-111.48 753.67,-111.48 759.67,-117.48 759.67,-123.48 759.67,-123.48 759.67,-135.48 759.67,-135.48 759.67,-141.48 753.67,-147.48 747.67,-147.48"></path>
<text xml:space="preserve" text-anchor="middle" x="692.76" y="-125.28" font-family="Times,serif" font-size="14.00" fill="#cccccc">🔧 get_top_countries</text>
</g>
<!-- BaselineAgent&#45;&gt;get_top_countries -->
<g id="edge8" class="edge">
<title>BaselineAgent-&gt;get_top_countries</title>
<path fill="none" stroke="#cccccc" d="M402.49,-327.41C424.22,-289.08 480.53,-199.59 554.35,-156.48 575.76,-143.97 601.93,-137.14 625.66,-133.45"></path>
</g>
<!-- BaselineAgent&#45;&gt;get_attacker_src_ip -->
<g id="edge9" class="edge">
<title>BaselineAgent-&gt;get_attacker_src_ip</title>
<path fill="none" stroke="#cccccc" d="M471.62,-346.9C489.34,-351.05 506.41,-358.77 518.35,-372.48 589.47,-454.14 482.5,-777.44 554.35,-858.48 570.96,-877.22 596.45,-885.25 620.99,-888.15"></path>
</g>
<!-- get_country_to_port -->
<g id="node12" class="node">
<title>get_country_to_port</title>
<path fill="none" stroke="#cccccc" d="M754.67,-255.48C754.67,-255.48 630.86,-255.48 630.86,-255.48 624.86,-255.48 618.86,-249.48 618.86,-243.48 618.86,-243.48 618.86,-231.48 618.86,-231.48 618.86,-225.48 624.86,-219.48 630.86,-219.48 630.86,-219.48 754.67,-219.48 754.67,-219.48 760.67,-219.48 766.67,-225.48 766.67,-231.48 766.67,-231.48 766.67,-243.48 766.67,-243.48 766.67,-249.48 760.67,-255.48 754.67,-255.48"></path>
<text xml:space="preserve" text-anchor="middle" x="692.76" y="-233.28" font-family="Times,serif" font-size="14.00" fill="#cccccc">🔧 get_country_to_port</text>
</g>
<!-- BaselineAgent&#45;&gt;get_country_to_port -->
<g id="edge10" class="edge">
<title>BaselineAgent-&gt;get_country_to_port</title>
<path fill="none" stroke="#cccccc" d="M420.9,-328.4C452.37,-310.03 505.34,-281.22 554.35,-264.48 574.71,-257.52 597.42,-252.15 618.41,-248.09"></path>
</g>
<!-- BaselineAgent&#45;&gt;get_attacker_asn -->
<g id="edge11" class="edge">
<title>BaselineAgent-&gt;get_attacker_asn</title>
<path fill="none" stroke="#cccccc" d="M471.69,-346.84C489.41,-350.99 506.46,-358.72 518.35,-372.48 597,-463.46 474.9,-822.19 554.35,-912.48 572.66,-933.28 601.91,-940.91 628.73,-942.98"></path>
</g>
<!-- KnownSignalAgent -->
<g id="node14" class="node">
<title>KnownSignalAgent</title>
<ellipse fill="none" stroke="#cccccc" cx="391.73" cy="-912.48" rx="99.82" ry="18"></ellipse>
<text xml:space="preserve" text-anchor="middle" x="391.73" y="-908.28" font-family="Times,serif" font-size="14.00" fill="#cccccc">🤖 KnownSignalAgent</text>
</g>
<!-- KnownSignalAgent&#45;&gt;get_current_time -->
<g id="edge12" class="edge">
<title>KnownSignalAgent-&gt;get_current_time</title>
<path fill="none" stroke="#cccccc" d="M413.63,-894.48C443.01,-870.18 499.14,-827.27 554.35,-804.48 577.5,-794.92 604.26,-788.68 627.99,-784.64"></path>
</g>
<!-- KnownSignalAgent&#45;&gt;get_alert_signature -->
<g id="edge13" class="edge">
<title>KnownSignalAgent-&gt;get_alert_signature</title>
<path fill="none" stroke="#cccccc" d="M486.81,-918.12C498.22,-921.82 509.09,-927.09 518.35,-934.48 550.73,-960.33 522.24,-994.29 554.35,-1020.48 573.28,-1035.92 598.53,-1043.4 622.21,-1046.79"></path>
</g>
<!-- KnownSignalAgent&#45;&gt;get_cve -->
<g id="edge14" class="edge">
<title>KnownSignalAgent-&gt;get_cve</title>
<path fill="none" stroke="#cccccc" d="M488.49,-917.12C499.5,-921.01 509.81,-926.59 518.35,-934.48 565.52,-978.09 507.63,-1030.38 554.35,-1074.48 580.78,-1099.43 623.21,-1104.44 653.93,-1104.3"></path>
</g>
<!-- get_alert_category -->
<g id="node17" class="node">
<title>get_alert_category</title>
<path fill="none" stroke="#cccccc" d="M749.6,-849.48C749.6,-849.48 635.93,-849.48 635.93,-849.48 629.93,-849.48 623.93,-843.48 623.93,-837.48 623.93,-837.48 623.93,-825.48 623.93,-825.48 623.93,-819.48 629.93,-813.48 635.93,-813.48 635.93,-813.48 749.6,-813.48 749.6,-813.48 755.6,-813.48 761.6,-819.48 761.6,-825.48 761.6,-825.48 761.6,-837.48 761.6,-837.48 761.6,-843.48 755.6,-849.48 749.6,-849.48"></path>
<text xml:space="preserve" text-anchor="middle" x="692.76" y="-827.28" font-family="Times,serif" font-size="14.00" fill="#cccccc">🔧 get_alert_category</text>
</g>
<!-- KnownSignalAgent&#45;&gt;get_alert_category -->
<g id="edge15" class="edge">
<title>KnownSignalAgent-&gt;get_alert_category</title>
<path fill="none" stroke="#cccccc" d="M436.85,-896.03C469.08,-884.43 514.02,-869.13 554.35,-858.48 576.68,-852.58 601.36,-847.34 623.57,-843.08"></path>
</g>
<!-- KnownSignalAgent&#45;&gt;suricata_lenient_phrase_search -->
<g id="edge16" class="edge">
<title>KnownSignalAgent-&gt;suricata_lenient_phrase_search</title>
<path fill="none" stroke="#cccccc" d="M479.85,-921.26C493.13,-924.42 506.39,-928.7 518.35,-934.48 537.62,-943.79 535.17,-956.97 554.35,-966.48 564.91,-971.72 576.41,-975.94 588.1,-979.34"></path>
</g>
<!-- CredentialNoiseAgent -->
<g id="node19" class="node">
<title>CredentialNoiseAgent</title>
<ellipse fill="none" stroke="#cccccc" cx="391.73" cy="-399.48" rx="109.46" ry="18"></ellipse>
<text xml:space="preserve" text-anchor="middle" x="391.73" y="-395.28" font-family="Times,serif" font-size="14.00" fill="#cccccc">🤖 CredentialNoiseAgent</text>
</g>
<!-- CredentialNoiseAgent&#45;&gt;get_current_time -->
<g id="edge17" class="edge">
<title>CredentialNoiseAgent-&gt;get_current_time</title>
<path fill="none" stroke="#cccccc" d="M411.47,-417.46C439.45,-445.46 491.71,-502.44 518.35,-561.48 553.52,-639.42 494.06,-689.84 554.35,-750.48 573.38,-769.62 601.74,-777.23 627.76,-779.72"></path>
</g>
<!-- get_input_usernames -->
<g id="node20" class="node">
<title>get_input_usernames</title>
<path fill="none" stroke="#cccccc" d="M757,-363.48C757,-363.48 628.53,-363.48 628.53,-363.48 622.53,-363.48 616.53,-357.48 616.53,-351.48 616.53,-351.48 616.53,-339.48 616.53,-339.48 616.53,-333.48 622.53,-327.48 628.53,-327.48 628.53,-327.48 757,-327.48 757,-327.48 763,-327.48 769,-333.48 769,-339.48 769,-339.48 769,-351.48 769,-351.48 769,-357.48 763,-363.48 757,-363.48"></path>
<text xml:space="preserve" text-anchor="middle" x="692.76" y="-341.28" font-family="Times,serif" font-size="14.00" fill="#cccccc">🔧 get_input_usernames</text>
</g>
<!-- CredentialNoiseAgent&#45;&gt;get_input_usernames -->
<g id="edge18" class="edge">
<title>CredentialNoiseAgent-&gt;get_input_usernames</title>
<path fill="none" stroke="#cccccc" d="M467.03,-386.06C512.52,-377.84 570.58,-367.36 616.28,-359.11"></path>
</g>
<!-- get_input_passwords -->
<g id="node21" class="node">
<title>get_input_passwords</title>
<path fill="none" stroke="#cccccc" d="M756.62,-417.48C756.62,-417.48 628.91,-417.48 628.91,-417.48 622.91,-417.48 616.91,-411.48 616.91,-405.48 616.91,-405.48 616.91,-393.48 616.91,-393.48 616.91,-387.48 622.91,-381.48 628.91,-381.48 628.91,-381.48 756.62,-381.48 756.62,-381.48 762.62,-381.48 768.62,-387.48 768.62,-393.48 768.62,-393.48 768.62,-405.48 768.62,-405.48 768.62,-411.48 762.62,-417.48 756.62,-417.48"></path>
<text xml:space="preserve" text-anchor="middle" x="692.76" y="-395.28" font-family="Times,serif" font-size="14.00" fill="#cccccc">🔧 get_input_passwords</text>
</g>
<!-- CredentialNoiseAgent&#45;&gt;get_input_passwords -->
<g id="edge19" class="edge">
<title>CredentialNoiseAgent-&gt;get_input_passwords</title>
<path fill="none" stroke="#cccccc" d="M501.53,-399.48C539.77,-399.48 581.86,-399.48 616.71,-399.48"></path>
</g>
<!-- get_p0f_os_distribution -->
<g id="node22" class="node">
<title>get_p0f_os_distribution</title>
<path fill="none" stroke="#cccccc" d="M764.4,-309.48C764.4,-309.48 621.13,-309.48 621.13,-309.48 615.13,-309.48 609.13,-303.48 609.13,-297.48 609.13,-297.48 609.13,-285.48 609.13,-285.48 609.13,-279.48 615.13,-273.48 621.13,-273.48 621.13,-273.48 764.4,-273.48 764.4,-273.48 770.4,-273.48 776.4,-279.48 776.4,-285.48 776.4,-285.48 776.4,-297.48 776.4,-297.48 776.4,-303.48 770.4,-309.48 764.4,-309.48"></path>
<text xml:space="preserve" text-anchor="middle" x="692.76" y="-287.28" font-family="Times,serif" font-size="14.00" fill="#cccccc">🔧 get_p0f_os_distribution</text>
</g>
<!-- CredentialNoiseAgent&#45;&gt;get_p0f_os_distribution -->
<g id="edge20" class="edge">
<title>CredentialNoiseAgent-&gt;get_p0f_os_distribution</title>
<path fill="none" stroke="#cccccc" d="M482.4,-389.17C495.14,-385.21 507.56,-379.82 518.35,-372.48 542.2,-356.26 530.36,-334.49 554.35,-318.48 570.43,-307.75 589.77,-301.08 608.8,-296.98"></path>
</g>
<!-- HoneypotSpecificAgent -->
<g id="node23" class="node">
<title>HoneypotSpecificAgent</title>
<ellipse fill="none" stroke="#cccccc" cx="391.73" cy="-588.48" rx="116.43" ry="18"></ellipse>
<text xml:space="preserve" text-anchor="middle" x="391.73" y="-584.28" font-family="Times,serif" font-size="14.00" fill="#cccccc">🤖 HoneypotSpecificAgent</text>
</g>
<!-- HoneypotSpecificAgent&#45;&gt;get_current_time -->
<g id="edge21" class="edge">
<title>HoneypotSpecificAgent-&gt;get_current_time</title>
<path fill="none" stroke="#cccccc" d="M405.17,-606.79C429.49,-641.01 486.88,-714.47 554.35,-750.48 576.76,-762.44 603.78,-769.14 627.9,-772.87"></path>
</g>
<!-- redis_duration_and_bytes -->
<g id="node24" class="node">
<title>redis_duration_and_bytes</title>
<path fill="none" stroke="#cccccc" d="M769.83,-471.48C769.83,-471.48 615.7,-471.48 615.7,-471.48 609.7,-471.48 603.7,-465.48 603.7,-459.48 603.7,-459.48 603.7,-447.48 603.7,-447.48 603.7,-441.48 609.7,-435.48 615.7,-435.48 615.7,-435.48 769.83,-435.48 769.83,-435.48 775.83,-435.48 781.83,-441.48 781.83,-447.48 781.83,-447.48 781.83,-459.48 781.83,-459.48 781.83,-465.48 775.83,-471.48 769.83,-471.48"></path>
<text xml:space="preserve" text-anchor="middle" x="692.76" y="-449.28" font-family="Times,serif" font-size="14.00" fill="#cccccc">🔧 redis_duration_and_bytes</text>
</g>
<!-- HoneypotSpecificAgent&#45;&gt;redis_duration_and_bytes -->
<g id="edge22" class="edge">
<title>HoneypotSpecificAgent-&gt;redis_duration_and_bytes</title>
<path fill="none" stroke="#cccccc" d="M413.63,-570.48C443.01,-546.18 499.14,-503.27 554.35,-480.48 569.74,-474.12 586.74,-469.23 603.37,-465.48"></path>
</g>
<!-- adbhoney_input -->
<g id="node25" class="node">
<title>adbhoney_input</title>
<path fill="none" stroke="#cccccc" d="M742.62,-525.48C742.62,-525.48 642.91,-525.48 642.91,-525.48 636.91,-525.48 630.91,-519.48 630.91,-513.48 630.91,-513.48 630.91,-501.48 630.91,-501.48 630.91,-495.48 636.91,-489.48 642.91,-489.48 642.91,-489.48 742.62,-489.48 742.62,-489.48 748.62,-489.48 754.62,-495.48 754.62,-501.48 754.62,-501.48 754.62,-513.48 754.62,-513.48 754.62,-519.48 748.62,-525.48 742.62,-525.48"></path>
<text xml:space="preserve" text-anchor="middle" x="692.76" y="-503.28" font-family="Times,serif" font-size="14.00" fill="#cccccc">🔧 adbhoney_input</text>
</g>
<!-- HoneypotSpecificAgent&#45;&gt;adbhoney_input -->
<g id="edge23" class="edge">
<title>HoneypotSpecificAgent-&gt;adbhoney_input</title>
<path fill="none" stroke="#cccccc" d="M438.23,-571.53C470.36,-560 514.59,-544.98 554.35,-534.48 579.03,-527.96 606.58,-522.24 630.5,-517.77"></path>
</g>
<!-- adbhoney_malware_samples -->
<g id="node26" class="node">
<title>adbhoney_malware_samples</title>
<path fill="none" stroke="#cccccc" d="M778.38,-579.48C778.38,-579.48 607.15,-579.48 607.15,-579.48 601.15,-579.48 595.15,-573.48 595.15,-567.48 595.15,-567.48 595.15,-555.48 595.15,-555.48 595.15,-549.48 601.15,-543.48 607.15,-543.48 607.15,-543.48 778.38,-543.48 778.38,-543.48 784.38,-543.48 790.38,-549.48 790.38,-555.48 790.38,-555.48 790.38,-567.48 790.38,-567.48 790.38,-573.48 784.38,-579.48 778.38,-579.48"></path>
<text xml:space="preserve" text-anchor="middle" x="692.76" y="-557.28" font-family="Times,serif" font-size="14.00" fill="#cccccc">🔧 adbhoney_malware_samples</text>
</g>
<!-- HoneypotSpecificAgent&#45;&gt;adbhoney_malware_samples -->
<g id="edge24" class="edge">
<title>HoneypotSpecificAgent-&gt;adbhoney_malware_samples</title>
<path fill="none" stroke="#cccccc" d="M493.13,-579.41C525.88,-576.46 562.16,-573.18 594.66,-570.24"></path>
</g>
<!-- conpot_input -->
<g id="node27" class="node">
<title>conpot_input</title>
<path fill="none" stroke="#cccccc" d="M734.46,-633.48C734.46,-633.48 651.07,-633.48 651.07,-633.48 645.07,-633.48 639.07,-627.48 639.07,-621.48 639.07,-621.48 639.07,-609.48 639.07,-609.48 639.07,-603.48 645.07,-597.48 651.07,-597.48 651.07,-597.48 734.46,-597.48 734.46,-597.48 740.46,-597.48 746.46,-603.48 746.46,-609.48 746.46,-609.48 746.46,-621.48 746.46,-621.48 746.46,-627.48 740.46,-633.48 734.46,-633.48"></path>
<text xml:space="preserve" text-anchor="middle" x="692.76" y="-611.28" font-family="Times,serif" font-size="14.00" fill="#cccccc">🔧 conpot_input</text>
</g>
<!-- HoneypotSpecificAgent&#45;&gt;conpot_input -->
<g id="edge25" class="edge">
<title>HoneypotSpecificAgent-&gt;conpot_input</title>
<path fill="none" stroke="#cccccc" d="M493.13,-597.54C541.83,-601.94 598.35,-607.04 638.61,-610.68"></path>
</g>
<!-- tanner_unifrom_resource_search -->
<g id="node28" class="node">
<title>tanner_unifrom_resource_search</title>
<path fill="none" stroke="#cccccc" d="M789.64,-687.48C789.64,-687.48 595.89,-687.48 595.89,-687.48 589.89,-687.48 583.89,-681.48 583.89,-675.48 583.89,-675.48 583.89,-663.48 583.89,-663.48 583.89,-657.48 589.89,-651.48 595.89,-651.48 595.89,-651.48 789.64,-651.48 789.64,-651.48 795.64,-651.48 801.64,-657.48 801.64,-663.48 801.64,-663.48 801.64,-675.48 801.64,-675.48 801.64,-681.48 795.64,-687.48 789.64,-687.48"></path>
<text xml:space="preserve" text-anchor="middle" x="692.76" y="-665.28" font-family="Times,serif" font-size="14.00" fill="#cccccc">🔧 tanner_unifrom_resource_search</text>
</g>
<!-- HoneypotSpecificAgent&#45;&gt;tanner_unifrom_resource_search -->
<g id="edge26" class="edge">
<title>HoneypotSpecificAgent-&gt;tanner_unifrom_resource_search</title>
<path fill="none" stroke="#cccccc" d="M438.23,-605.43C470.36,-616.96 514.59,-631.98 554.35,-642.48 565.87,-645.52 578.01,-648.39 590.12,-651.03"></path>
</g>
<!-- conpot_protocol -->
<g id="node29" class="node">
<title>conpot_protocol</title>
<path fill="none" stroke="#cccccc" d="M743.39,-741.48C743.39,-741.48 642.14,-741.48 642.14,-741.48 636.14,-741.48 630.14,-735.48 630.14,-729.48 630.14,-729.48 630.14,-717.48 630.14,-717.48 630.14,-711.48 636.14,-705.48 642.14,-705.48 642.14,-705.48 743.39,-705.48 743.39,-705.48 749.39,-705.48 755.39,-711.48 755.39,-717.48 755.39,-717.48 755.39,-729.48 755.39,-729.48 755.39,-735.48 749.39,-741.48 743.39,-741.48"></path>
<text xml:space="preserve" text-anchor="middle" x="692.76" y="-719.28" font-family="Times,serif" font-size="14.00" fill="#cccccc">🔧 conpot_protocol</text>
</g>
<!-- HoneypotSpecificAgent&#45;&gt;conpot_protocol -->
<g id="edge27" class="edge">
<title>HoneypotSpecificAgent-&gt;conpot_protocol</title>
<path fill="none" stroke="#cccccc" d="M413.63,-606.47C443.01,-630.78 499.14,-673.68 554.35,-696.48 578.06,-706.27 605.56,-712.57 629.71,-716.6"></path>
</g>
<!-- CandidateLoopControllerAgent -->
<g id="node43" class="node">
<title>CandidateLoopControllerAgent</title>
<ellipse fill="none" stroke="#cccccc" cx="1013.12" cy="-1908.48" rx="145.94" ry="18"></ellipse>
<text xml:space="preserve" text-anchor="middle" x="1013.12" y="-1904.28" font-family="Times,serif" font-size="14.00" fill="#cccccc">🤖 CandidateLoopControllerAgent</text>
</g>
<!-- CandidateValidationAgent -->
<g id="node44" class="node">
<title>CandidateValidationAgent</title>
<ellipse fill="none" stroke="#cccccc" cx="391.73" cy="-1772.48" rx="126.62" ry="18"></ellipse>
<text xml:space="preserve" text-anchor="middle" x="391.73" y="-1768.28" font-family="Times,serif" font-size="14.00" fill="#cccccc">🤖 CandidateValidationAgent</text>
</g>
<!-- CandidateLoopControllerAgent&#45;&gt;CandidateValidationAgent -->
<g id="edge47" class="edge">
<title>CandidateLoopControllerAgent-&gt;CandidateValidationAgent</title>
<path fill="none" stroke="#cccccc" d="M879.57,-1916.02C753.75,-1921.92 580.09,-1926.34 554.35,-1907.48 511.83,-1876.33 558.05,-1829.15 518.35,-1794.48 515.51,-1792 512.5,-1789.76 509.35,-1787.73"></path>
<polygon fill="#cccccc" stroke="#cccccc" points="511.26,-1784.78 500.82,-1782.98 507.86,-1790.9 511.26,-1784.78"></polygon>
</g>
<!-- load_next_candidate -->
<g id="node46" class="node">
<title>load_next_candidate</title>
<path fill="none" stroke="#cccccc" d="M1341.35,-1899.48C1341.35,-1899.48 1216.01,-1899.48 1216.01,-1899.48 1210.01,-1899.48 1204.01,-1893.48 1204.01,-1887.48 1204.01,-1887.48 1204.01,-1875.48 1204.01,-1875.48 1204.01,-1869.48 1210.01,-1863.48 1216.01,-1863.48 1216.01,-1863.48 1341.35,-1863.48 1341.35,-1863.48 1347.35,-1863.48 1353.35,-1869.48 1353.35,-1875.48 1353.35,-1875.48 1353.35,-1887.48 1353.35,-1887.48 1353.35,-1893.48 1347.35,-1899.48 1341.35,-1899.48"></path>
<text xml:space="preserve" text-anchor="middle" x="1278.68" y="-1877.28" font-family="Times,serif" font-size="14.00" fill="#cccccc">🔧 load_next_candidate</text>
</g>
<!-- CandidateLoopControllerAgent&#45;&gt;load_next_candidate -->
<g id="edge50" class="edge">
<title>CandidateLoopControllerAgent-&gt;load_next_candidate</title>
<path fill="none" stroke="#cccccc" d="M1127.04,-1896.91C1153.02,-1894.25 1180.01,-1891.48 1203.84,-1889.04"></path>
</g>
<!-- exit_loop -->
<g id="node47" class="node">
<title>exit_loop</title>
<path fill="none" stroke="#cccccc" d="M1309.87,-1953.48C1309.87,-1953.48 1247.48,-1953.48 1247.48,-1953.48 1241.48,-1953.48 1235.48,-1947.48 1235.48,-1941.48 1235.48,-1941.48 1235.48,-1929.48 1235.48,-1929.48 1235.48,-1923.48 1241.48,-1917.48 1247.48,-1917.48 1247.48,-1917.48 1309.87,-1917.48 1309.87,-1917.48 1315.87,-1917.48 1321.87,-1923.48 1321.87,-1929.48 1321.87,-1929.48 1321.87,-1941.48 1321.87,-1941.48 1321.87,-1947.48 1315.87,-1953.48 1309.87,-1953.48"></path>
<text xml:space="preserve" text-anchor="middle" x="1278.68" y="-1931.28" font-family="Times,serif" font-size="14.00" fill="#cccccc">🔧 exit_loop</text>
</g>
<!-- CandidateLoopControllerAgent&#45;&gt;exit_loop -->
<g id="edge51" class="edge">
<title>CandidateLoopControllerAgent-&gt;exit_loop</title>
<path fill="none" stroke="#cccccc" d="M1127.04,-1920.05C1165.32,-1923.97 1205.77,-1928.11 1235.1,-1931.12"></path>
</g>
<!-- CandidateValidationAgent&#45;&gt;get_current_time -->
<g id="edge52" class="edge">
<title>CandidateValidationAgent-&gt;get_current_time</title>
<path fill="none" stroke="#cccccc" d="M502.53,-1763.52C508.4,-1760.03 513.76,-1755.73 518.35,-1750.48 587.53,-1671.24 485.99,-884.42 554.35,-804.48 572.2,-783.6 601.07,-775.89 627.75,-773.79"></path>
</g>
<!-- CandidateValidationAgent&#45;&gt;get_attacker_src_ip -->
<g id="edge62" class="edge">
<title>CandidateValidationAgent-&gt;get_attacker_src_ip</title>
<path fill="none" stroke="#cccccc" d="M502.5,-1763.49C508.38,-1760.01 513.75,-1755.72 518.35,-1750.48 579.81,-1680.42 493.61,-983.16 554.35,-912.48 570.75,-893.39 596.35,-885.33 621.03,-882.49"></path>
</g>
<!-- CandidateValidationAgent&#45;&gt;get_attacker_asn -->
<g id="edge61" class="edge">
<title>CandidateValidationAgent-&gt;get_attacker_asn</title>
<path fill="none" stroke="#cccccc" d="M502.48,-1763.47C508.37,-1759.99 513.74,-1755.71 518.35,-1750.48 575.96,-1685.01 497.42,-1032.53 554.35,-966.48 572.44,-945.48 601.67,-937.83 628.53,-935.8"></path>
</g>
<!-- CandidateValidationAgent&#45;&gt;get_alert_signature -->
<g id="edge59" class="edge">
<title>CandidateValidationAgent-&gt;get_alert_signature</title>
<path fill="none" stroke="#cccccc" d="M502.44,-1763.44C508.33,-1759.96 513.72,-1755.7 518.35,-1750.48 618.14,-1637.91 455.72,-1188.07 554.35,-1074.48 571.09,-1055.2 597.21,-1047.19 622.21,-1044.46"></path>
</g>
<!-- CandidateValidationAgent&#45;&gt;get_cve -->
<g id="edge58" class="edge">
<title>CandidateValidationAgent-&gt;get_cve</title>
<path fill="none" stroke="#cccccc" d="M502.41,-1763.41C508.31,-1759.95 513.71,-1755.69 518.35,-1750.48 611.15,-1646.24 460.79,-1227.04 554.35,-1123.48 578.89,-1096.32 622.51,-1093.6 654.03,-1095.9"></path>
</g>
<!-- CandidateValidationAgent&#45;&gt;suricata_lenient_phrase_search -->
<g id="edge60" class="edge">
<title>CandidateValidationAgent-&gt;suricata_lenient_phrase_search</title>
<path fill="none" stroke="#cccccc" d="M502.46,-1763.46C508.35,-1759.98 513.73,-1755.71 518.35,-1750.48 572.1,-1689.6 501.23,-1081.9 554.35,-1020.48 563.41,-1010 575.25,-1002.84 588.19,-998.06"></path>
</g>
<!-- CandidateValidationAgent&#45;&gt;kibanna_discover_query -->
<g id="edge53" class="edge">
<title>CandidateValidationAgent-&gt;kibanna_discover_query</title>
<path fill="none" stroke="#cccccc" d="M496.06,-1761.97C503.94,-1758.93 511.49,-1755.15 518.35,-1750.48 543.73,-1733.18 529.14,-1709.04 554.35,-1691.48 569.81,-1680.71 588.5,-1673.98 607.06,-1669.84"></path>
</g>
<!-- CandidateValidationAgent&#45;&gt;custom_basic_search -->
<g id="edge54" class="edge">
<title>CandidateValidationAgent-&gt;custom_basic_search</title>
<path fill="none" stroke="#cccccc" d="M473.84,-1758.38C488.65,-1755.78 503.97,-1753.06 518.35,-1750.48 550.44,-1744.71 585.84,-1738.2 616.25,-1732.57"></path>
</g>
<!-- CandidateValidationAgent&#45;&gt;two_level_terms_aggregated -->
<g id="edge55" class="edge">
<title>CandidateValidationAgent-&gt;two_level_terms_aggregated</title>
<path fill="none" stroke="#cccccc" d="M518.68,-1772.48C544.22,-1772.48 570.7,-1772.48 595.04,-1772.48"></path>
</g>
<!-- CandidateValidationAgent&#45;&gt;match_query -->
<g id="edge56" class="edge">
<title>CandidateValidationAgent-&gt;match_query</title>
<path fill="none" stroke="#cccccc" d="M473.84,-1786.57C488.65,-1789.18 503.97,-1791.89 518.35,-1794.48 558.88,-1801.77 604.69,-1810.23 639.04,-1816.62"></path>
</g>
<!-- CandidateValidationAgent&#45;&gt;complete_custom_search -->
<g id="edge57" class="edge">
<title>CandidateValidationAgent-&gt;complete_custom_search</title>
<path fill="none" stroke="#cccccc" d="M499.5,-1762.71C506.3,-1759.45 512.68,-1755.43 518.35,-1750.48 558.05,-1715.81 515.01,-1672.56 554.35,-1637.48 568.41,-1624.94 586.55,-1617.52 605.02,-1613.26"></path>
</g>
<!-- CandidateLoopReducerAgent -->
<g id="node45" class="node">
<title>CandidateLoopReducerAgent</title>
<ellipse fill="none" stroke="#cccccc" cx="692.76" cy="-1954.48" rx="138.42" ry="18"></ellipse>
<text xml:space="preserve" text-anchor="middle" x="692.76" y="-1950.28" font-family="Times,serif" font-size="14.00" fill="#cccccc">🤖 CandidateLoopReducerAgent</text>
</g>
<!-- CandidateValidationAgent&#45;&gt;CandidateLoopReducerAgent -->
<g id="edge48" class="edge">
<title>CandidateValidationAgent-&gt;CandidateLoopReducerAgent</title>
<path fill="none" stroke="#cccccc" d="M499.99,-1782.17C506.63,-1785.45 512.85,-1789.5 518.35,-1794.48 562.19,-1834.11 511.62,-1881.65 554.35,-1922.48 560.82,-1928.67 568.25,-1933.74 576.23,-1937.89"></path>
<polygon fill="#cccccc" stroke="#cccccc" points="574.68,-1941.03 585.22,-1942.03 577.61,-1934.67 574.68,-1941.03"></polygon>
</g>
<!-- suricata_cve_samples -->
<g id="node48" class="node">
<title>suricata_cve_samples</title>
<path fill="none" stroke="#cccccc" d="M758.55,-2026.48C758.55,-2026.48 626.98,-2026.48 626.98,-2026.48 620.98,-2026.48 614.98,-2020.48 614.98,-2014.48 614.98,-2014.48 614.98,-2002.48 614.98,-2002.48 614.98,-1996.48 620.98,-1990.48 626.98,-1990.48 626.98,-1990.48 758.55,-1990.48 758.55,-1990.48 764.55,-1990.48 770.55,-1996.48 770.55,-2002.48 770.55,-2002.48 770.55,-2014.48 770.55,-2014.48 770.55,-2020.48 764.55,-2026.48 758.55,-2026.48"></path>
<text xml:space="preserve" text-anchor="middle" x="692.76" y="-2004.28" font-family="Times,serif" font-size="14.00" fill="#cccccc">🔧 suricata_cve_samples</text>
</g>
<!-- CandidateValidationAgent&#45;&gt;suricata_cve_samples -->
<g id="edge63" class="edge">
<title>CandidateValidationAgent-&gt;suricata_cve_samples</title>
<path fill="none" stroke="#cccccc" d="M500.76,-1781.81C507.18,-1785.19 513.14,-1789.35 518.35,-1794.48 578.7,-1853.82 494.62,-1921.52 554.35,-1981.48 570.22,-1997.41 592.56,-2005.35 614.63,-2009"></path>
</g>
<!-- suricata_signature_samples -->
<g id="node49" class="node">
<title>suricata_signature_samples</title>
<path fill="none" stroke="#cccccc" d="M774.49,-2080.48C774.49,-2080.48 611.04,-2080.48 611.04,-2080.48 605.04,-2080.48 599.04,-2074.48 599.04,-2068.48 599.04,-2068.48 599.04,-2056.48 599.04,-2056.48 599.04,-2050.48 605.04,-2044.48 611.04,-2044.48 611.04,-2044.48 774.49,-2044.48 774.49,-2044.48 780.49,-2044.48 786.49,-2050.48 786.49,-2056.48 786.49,-2056.48 786.49,-2068.48 786.49,-2068.48 786.49,-2074.48 780.49,-2080.48 774.49,-2080.48"></path>
<text xml:space="preserve" text-anchor="middle" x="692.76" y="-2058.28" font-family="Times,serif" font-size="14.00" fill="#cccccc">🔧 suricata_signature_samples</text>
</g>
<!-- CandidateValidationAgent&#45;&gt;suricata_signature_samples -->
<g id="edge64" class="edge">
<title>CandidateValidationAgent-&gt;suricata_signature_samples</title>
<path fill="none" stroke="#cccccc" d="M501.3,-1781.72C507.55,-1785.13 513.32,-1789.33 518.35,-1794.48 593.96,-1872.01 479.54,-1957.17 554.35,-2035.48 566.27,-2047.96 582.15,-2055.59 598.88,-2060.11"></path>
</g>
<!-- events_for_src_ip -->
<g id="node50" class="node">
<title>events_for_src_ip</title>
<path fill="none" stroke="#cccccc" d="M747.67,-2134.48C747.67,-2134.48 637.86,-2134.48 637.86,-2134.48 631.86,-2134.48 625.86,-2128.48 625.86,-2122.48 625.86,-2122.48 625.86,-2110.48 625.86,-2110.48 625.86,-2104.48 631.86,-2098.48 637.86,-2098.48 637.86,-2098.48 747.67,-2098.48 747.67,-2098.48 753.67,-2098.48 759.67,-2104.48 759.67,-2110.48 759.67,-2110.48 759.67,-2122.48 759.67,-2122.48 759.67,-2128.48 753.67,-2134.48 747.67,-2134.48"></path>
<text xml:space="preserve" text-anchor="middle" x="692.76" y="-2112.28" font-family="Times,serif" font-size="14.00" fill="#cccccc">🔧 events_for_src_ip</text>
</g>
<!-- CandidateValidationAgent&#45;&gt;events_for_src_ip -->
<g id="edge65" class="edge">
<title>CandidateValidationAgent-&gt;events_for_src_ip</title>
<path fill="none" stroke="#cccccc" d="M501.75,-1781.73C507.85,-1785.14 513.47,-1789.34 518.35,-1794.48 609.29,-1890.27 464.4,-1992.75 554.35,-2089.48 572.31,-2108.8 599.73,-2116.59 625.37,-2119.16"></path>
</g>
<!-- first_last_seen_src_ip -->
<g id="node51" class="node">
<title>first_last_seen_src_ip</title>
<path fill="none" stroke="#cccccc" d="M758.56,-2188.48C758.56,-2188.48 626.97,-2188.48 626.97,-2188.48 620.97,-2188.48 614.97,-2182.48 614.97,-2176.48 614.97,-2176.48 614.97,-2164.48 614.97,-2164.48 614.97,-2158.48 620.97,-2152.48 626.97,-2152.48 626.97,-2152.48 758.56,-2152.48 758.56,-2152.48 764.56,-2152.48 770.56,-2158.48 770.56,-2164.48 770.56,-2164.48 770.56,-2176.48 770.56,-2176.48 770.56,-2182.48 764.56,-2188.48 758.56,-2188.48"></path>
<text xml:space="preserve" text-anchor="middle" x="692.76" y="-2166.28" font-family="Times,serif" font-size="14.00" fill="#cccccc">🔧 first_last_seen_src_ip</text>
</g>
<!-- CandidateValidationAgent&#45;&gt;first_last_seen_src_ip -->
<g id="edge66" class="edge">
<title>CandidateValidationAgent-&gt;first_last_seen_src_ip</title>
<path fill="none" stroke="#cccccc" d="M501.86,-1781.63C507.93,-1785.06 513.52,-1789.29 518.35,-1794.48 624.65,-1908.56 449.23,-2028.3 554.35,-2143.48 569.67,-2160.27 592.13,-2168.4 614.48,-2171.95"></path>
</g>
<!-- web_path_samples -->
<g id="node52" class="node">
<title>web_path_samples</title>
<path fill="none" stroke="#cccccc" d="M750.78,-1898.48C750.78,-1898.48 634.75,-1898.48 634.75,-1898.48 628.75,-1898.48 622.75,-1892.48 622.75,-1886.48 622.75,-1886.48 622.75,-1874.48 622.75,-1874.48 622.75,-1868.48 628.75,-1862.48 634.75,-1862.48 634.75,-1862.48 750.78,-1862.48 750.78,-1862.48 756.78,-1862.48 762.78,-1868.48 762.78,-1874.48 762.78,-1874.48 762.78,-1886.48 762.78,-1886.48 762.78,-1892.48 756.78,-1898.48 750.78,-1898.48"></path>
<text xml:space="preserve" text-anchor="middle" x="692.76" y="-1876.28" font-family="Times,serif" font-size="14.00" fill="#cccccc">🔧 web_path_samples</text>
</g>
<!-- CandidateValidationAgent&#45;&gt;web_path_samples -->
<g id="edge67" class="edge">
<title>CandidateValidationAgent-&gt;web_path_samples</title>
<path fill="none" stroke="#cccccc" d="M496.06,-1782.98C503.94,-1786.02 511.49,-1789.8 518.35,-1794.48 543.73,-1811.78 529.14,-1835.92 554.35,-1853.48 574.1,-1867.24 599.12,-1874.39 622.39,-1877.99"></path>
</g>
<!-- CandidateValidationAgent&#45;&gt;search_agent -->
<g id="edge68" class="edge">
<title>CandidateValidationAgent-&gt;search_agent</title>
<path fill="none" stroke="#cccccc" d="M501.94,-1781.55C508,-1785 513.55,-1789.26 518.35,-1794.48 579.19,-1860.68 494.19,-2130.65 554.35,-2197.48 575.25,-2220.7 609.79,-2227.41 639.01,-2228.34"></path>
</g>
<!-- CandidateLoopReducerAgent&#45;&gt;CandidateLoopControllerAgent -->
<g id="edge49" class="edge">
<title>CandidateLoopReducerAgent-&gt;CandidateLoopControllerAgent</title>
<path fill="none" stroke="#cccccc" d="M787.13,-1940.99C824.12,-1935.64 866.86,-1929.47 905.09,-1923.94"></path>
<polygon fill="#cccccc" stroke="#cccccc" points="905.37,-1927.44 914.77,-1922.54 904.37,-1920.51 905.37,-1927.44"></polygon>
</g>
<!-- append_validated_candidate -->
<g id="node54" class="node">
<title>append_validated_candidate</title>
<path fill="none" stroke="#cccccc" d="M1097.55,-1980.48C1097.55,-1980.48 928.68,-1980.48 928.68,-1980.48 922.68,-1980.48 916.68,-1974.48 916.68,-1968.48 916.68,-1968.48 916.68,-1956.48 916.68,-1956.48 916.68,-1950.48 922.68,-1944.48 928.68,-1944.48 928.68,-1944.48 1097.55,-1944.48 1097.55,-1944.48 1103.55,-1944.48 1109.55,-1950.48 1109.55,-1956.48 1109.55,-1956.48 1109.55,-1968.48 1109.55,-1968.48 1109.55,-1974.48 1103.55,-1980.48 1097.55,-1980.48"></path>
<text xml:space="preserve" text-anchor="middle" x="1013.12" y="-1958.28" font-family="Times,serif" font-size="14.00" fill="#cccccc">🔧 append_validated_candidate</text>
</g>
<!-- CandidateLoopReducerAgent&#45;&gt;append_validated_candidate -->
<g id="edge69" class="edge">
<title>CandidateLoopReducerAgent-&gt;append_validated_candidate</title>
<path fill="none" stroke="#cccccc" d="M829.24,-1957.88C858.51,-1958.62 888.89,-1959.38 916.27,-1960.07"></path>
</g>
<!-- IvestigationPipelineAgent -->
<g id="node56" class="node">
<title>IvestigationPipelineAgent</title>
<ellipse fill="none" stroke="black" cx="114.55" cy="-399.48" rx="111.88" ry="18"></ellipse>
<text xml:space="preserve" text-anchor="middle" x="114.55" y="-395.28" font-family="Times,serif" font-size="14.00">IvestigationPipelineAgent</text>
</g>
<!-- IvestigationPipelineAgent&#45;&gt;BaselineAgent -->
<g id="edge72" class="edge">
<title>IvestigationPipelineAgent-&gt;BaselineAgent</title>
<path fill="none" stroke="#cccccc" d="M185.53,-385.18C206.01,-381.03 228.44,-376.53 249.1,-372.48 271.59,-368.06 296.1,-363.35 318.31,-359.12"></path>
<polygon fill="#cccccc" stroke="#cccccc" points="318.7,-362.61 327.87,-357.31 317.39,-355.74 318.7,-362.61"></polygon>
</g>
<!-- IvestigationPipelineAgent&#45;&gt;KnownSignalAgent -->
<g id="edge73" class="edge">
<title>IvestigationPipelineAgent-&gt;KnownSignalAgent</title>
<path fill="none" stroke="#cccccc" d="M125.35,-417.74C166.47,-494.39 325.34,-790.58 375.48,-884.05"></path>
<polygon fill="#cccccc" stroke="#cccccc" points="372.38,-885.68 380.19,-892.84 378.55,-882.37 372.38,-885.68"></polygon>
</g>
<!-- IvestigationPipelineAgent&#45;&gt;CredentialNoiseAgent -->
<g id="edge74" class="edge">
<title>IvestigationPipelineAgent-&gt;CredentialNoiseAgent</title>
<path fill="none" stroke="#cccccc" d="M226.68,-399.48C241.18,-399.48 256.09,-399.48 270.73,-399.48"></path>
<polygon fill="#cccccc" stroke="#cccccc" points="270.35,-402.98 280.35,-399.48 270.35,-395.98 270.35,-402.98"></polygon>
</g>
<!-- IvestigationPipelineAgent&#45;&gt;HoneypotSpecificAgent -->
<g id="edge75" class="edge">
<title>IvestigationPipelineAgent-&gt;HoneypotSpecificAgent</title>
<path fill="none" stroke="#cccccc" d="M141.44,-417.26C191.02,-451.31 299.41,-525.76 355.52,-564.29"></path>
<polygon fill="#cccccc" stroke="#cccccc" points="353.23,-566.97 363.46,-569.75 357.2,-561.2 353.23,-566.97"></polygon>
</g>
<!-- IvestigationPipelineAgent&#45;&gt;CandidateLoopControllerAgent -->
<g id="edge76" class="edge">
<title>IvestigationPipelineAgent-&gt;CandidateLoopControllerAgent</title>
<path fill="none" stroke="#cccccc" d="M117.84,-381.09C125.46,-328.01 155.13,-173.66 249.1,-99.48 351.11,-18.94 734.95,44.88 831.18,-42.48 973.46,-171.63 1007.21,-1650.41 1011.59,-1878.9"></path>
<polygon fill="#cccccc" stroke="#cccccc" points="1008.09,-1878.78 1011.77,-1888.72 1015.08,-1878.65 1008.09,-1878.78"></polygon>
</g>
</g>
</svg>
