<!--?xml version="1.0" encoding="UTF-8" standalone="no"?-->

<!-- Generated by graphviz version 14.1.1 (20251213.1925)
 -->
<!-- Pages: 1 -->
<svg width="1457pt" height="2536pt" viewBox="0.00 0.00 1457.00 2536.00" xmlns="http://www.w3.org/2000/svg" xmlns:xlink="http://www.w3.org/1999/xlink">
<g id="graph0" class="graph" transform="scale(1 1) rotate(0) translate(4 2532)">
<polygon fill="#333537" stroke="none" points="-4,4 -4,-2532 1452.87,-2532 1452.87,4 -4,4"></polygon>
<g id="clust1" class="cluster">
<title>cluster_IvestigationPipelineAgent (Sequential Agent)</title>
<path fill="#333537" stroke="#ffffff" d="M255.76,-44C255.76,-44 1371.03,-44 1371.03,-44 1377.03,-44 1383.03,-50 1383.03,-56 1383.03,-56 1383.03,-2508 1383.03,-2508 1383.03,-2514 1377.03,-2520 1371.03,-2520 1371.03,-2520 255.76,-2520 255.76,-2520 249.76,-2520 243.76,-2514 243.76,-2508 243.76,-2508 243.76,-56 243.76,-56 243.76,-50 249.76,-44 255.76,-44"></path>
<text xml:space="preserve" text-anchor="middle" x="813.39" y="-2503.4" font-family="Times,serif" font-size="14.00" fill="#cccccc">IvestigationPipelineAgent (Sequential Agent)</text>
</g>
<g id="clust2" class="cluster">
<title>cluster_DeepInvestigationLoopController (Loop Agent)</title>
<path fill="#333537" stroke="#ffffff" d="M263.76,-98C263.76,-98 744.51,-98 744.51,-98 750.51,-98 756.51,-104 756.51,-110 756.51,-110 756.51,-2269 756.51,-2269 756.51,-2275 750.51,-2281 744.51,-2281 744.51,-2281 263.76,-2281 263.76,-2281 257.76,-2281 251.76,-2275 251.76,-2269 251.76,-2269 251.76,-110 251.76,-110 251.76,-104 257.76,-98 263.76,-98"></path>
<text xml:space="preserve" text-anchor="middle" x="504.13" y="-2264.4" font-family="Times,serif" font-size="14.00" fill="#cccccc">DeepInvestigationLoopController (Loop Agent)</text>
</g>
<!-- FileIngestAgent -->
<g id="node1" class="node">
<title>FileIngestAgent</title>
<ellipse fill="none" stroke="#cccccc" cx="377.26" cy="-2388" rx="85.33" ry="18"></ellipse>
<text xml:space="preserve" text-anchor="middle" x="377.26" y="-2383.8" font-family="Times,serif" font-size="14.00" fill="#cccccc">🤖 FileIngestAgent</text>
</g>
<!-- FileReasoningAgent -->
<g id="node2" class="node">
<title>FileReasoningAgent</title>
<ellipse fill="none" stroke="#cccccc" cx="639.64" cy="-2415" rx="102.5" ry="18"></ellipse>
<text xml:space="preserve" text-anchor="middle" x="639.64" y="-2410.8" font-family="Times,serif" font-size="14.00" fill="#cccccc">🤖 FileReasoningAgent</text>
</g>
<!-- FileIngestAgent&#45;&gt;FileReasoningAgent -->
<g id="edge1" class="edge">
<title>FileIngestAgent-&gt;FileReasoningAgent</title>
<path fill="none" stroke="#cccccc" d="M454.62,-2395.92C481,-2398.65 510.96,-2401.76 538.92,-2404.66"></path>
<polygon fill="#cccccc" stroke="#cccccc" points="538.54,-2408.14 548.85,-2405.69 539.26,-2401.18 538.54,-2408.14"></polygon>
</g>
<!-- get_current_time -->
<g id="node7" class="node">
<title>get_current_time</title>
<path fill="none" stroke="#cccccc" d="M692.2,-2487C692.2,-2487 587.07,-2487 587.07,-2487 581.07,-2487 575.07,-2481 575.07,-2475 575.07,-2475 575.07,-2463 575.07,-2463 575.07,-2457 581.07,-2451 587.07,-2451 587.07,-2451 692.2,-2451 692.2,-2451 698.2,-2451 704.2,-2457 704.2,-2463 704.2,-2463 704.2,-2475 704.2,-2475 704.2,-2481 698.2,-2487 692.2,-2487"></path>
<text xml:space="preserve" text-anchor="middle" x="639.64" y="-2464.8" font-family="Times,serif" font-size="14.00" fill="#cccccc">🔧 get_current_time</text>
</g>
<!-- FileIngestAgent&#45;&gt;get_current_time -->
<g id="edge6" class="edge">
<title>FileIngestAgent-&gt;get_current_time</title>
<path fill="none" stroke="#cccccc" d="M419.98,-2403.98C450.43,-2415.35 492.85,-2430.57 530.76,-2442 544.9,-2446.26 560.23,-2450.39 574.76,-2454.08"></path>
</g>
<!-- list_investigation_reports -->
<g id="node8" class="node">
<title>list_investigation_reports</title>
<path fill="none" stroke="#cccccc" d="M715.55,-2325C715.55,-2325 563.73,-2325 563.73,-2325 557.73,-2325 551.73,-2319 551.73,-2313 551.73,-2313 551.73,-2301 551.73,-2301 551.73,-2295 557.73,-2289 563.73,-2289 563.73,-2289 715.55,-2289 715.55,-2289 721.55,-2289 727.55,-2295 727.55,-2301 727.55,-2301 727.55,-2313 727.55,-2313 727.55,-2319 721.55,-2325 715.55,-2325"></path>
<text xml:space="preserve" text-anchor="middle" x="639.64" y="-2302.8" font-family="Times,serif" font-size="14.00" fill="#cccccc">🔧 list_investigation_reports</text>
</g>
<!-- FileIngestAgent&#45;&gt;list_investigation_reports -->
<g id="edge7" class="edge">
<title>FileIngestAgent-&gt;list_investigation_reports</title>
<path fill="none" stroke="#cccccc" d="M419.98,-2372.02C450.43,-2360.65 492.85,-2345.43 530.76,-2334 540.56,-2331.05 550.92,-2328.16 561.2,-2325.44"></path>
</g>
<!-- read_investigation_reports -->
<g id="node9" class="node">
<title>read_investigation_reports</title>
<path fill="none" stroke="#cccccc" d="M719.03,-2379C719.03,-2379 560.24,-2379 560.24,-2379 554.24,-2379 548.24,-2373 548.24,-2367 548.24,-2367 548.24,-2355 548.24,-2355 548.24,-2349 554.24,-2343 560.24,-2343 560.24,-2343 719.03,-2343 719.03,-2343 725.03,-2343 731.03,-2349 731.03,-2355 731.03,-2355 731.03,-2367 731.03,-2367 731.03,-2373 725.03,-2379 719.03,-2379"></path>
<text xml:space="preserve" text-anchor="middle" x="639.64" y="-2356.8" font-family="Times,serif" font-size="14.00" fill="#cccccc">🔧 read_investigation_reports</text>
</g>
<!-- FileIngestAgent&#45;&gt;read_investigation_reports -->
<g id="edge8" class="edge">
<title>FileIngestAgent-&gt;read_investigation_reports</title>
<path fill="none" stroke="#cccccc" d="M454.62,-2380.08C483.88,-2377.05 517.55,-2373.56 548.02,-2370.4"></path>
</g>
<!-- InvestigationPlannerAgent -->
<g id="node3" class="node">
<title>InvestigationPlannerAgent</title>
<ellipse fill="none" stroke="#cccccc" cx="956.78" cy="-2415" rx="126.63" ry="18"></ellipse>
<text xml:space="preserve" text-anchor="middle" x="956.78" y="-2410.8" font-family="Times,serif" font-size="14.00" fill="#cccccc">🤖 InvestigationPlannerAgent</text>
</g>
<!-- FileReasoningAgent&#45;&gt;InvestigationPlannerAgent -->
<g id="edge2" class="edge">
<title>FileReasoningAgent-&gt;InvestigationPlannerAgent</title>
<path fill="none" stroke="#cccccc" d="M742.52,-2415C766.72,-2415 792.94,-2415 818.43,-2415"></path>
<polygon fill="#cccccc" stroke="#cccccc" points="818.18,-2418.5 828.18,-2415 818.18,-2411.5 818.18,-2418.5"></polygon>
</g>
<!-- investigation_summary_preliminary_reports_write_file -->
<g id="node10" class="node">
<title>investigation_summary_preliminary_reports_write_file</title>
<path fill="none" stroke="#cccccc" d="M1117.05,-2379C1117.05,-2379 796.51,-2379 796.51,-2379 790.51,-2379 784.51,-2373 784.51,-2367 784.51,-2367 784.51,-2355 784.51,-2355 784.51,-2349 790.51,-2343 796.51,-2343 796.51,-2343 1117.05,-2343 1117.05,-2343 1123.05,-2343 1129.05,-2349 1129.05,-2355 1129.05,-2355 1129.05,-2367 1129.05,-2367 1129.05,-2373 1123.05,-2379 1117.05,-2379"></path>
<text xml:space="preserve" text-anchor="middle" x="956.78" y="-2356.8" font-family="Times,serif" font-size="14.00" fill="#cccccc">🔧 investigation_summary_preliminary_reports_write_file</text>
</g>
<!-- FileReasoningAgent&#45;&gt;investigation_summary_preliminary_reports_write_file -->
<g id="edge9" class="edge">
<title>FileReasoningAgent-&gt;investigation_summary_preliminary_reports_write_file</title>
<path fill="none" stroke="#cccccc" d="M710.08,-2401.54C733.68,-2397.09 760.22,-2392.19 784.51,-2388 801.12,-2385.13 818.66,-2382.23 835.93,-2379.44"></path>
</g>
<!-- DeepInvestigationLoopController -->
<g id="node4" class="node">
<title>DeepInvestigationLoopController</title>
<ellipse fill="none" stroke="black" cx="1306.96" cy="-18" rx="141.91" ry="18"></ellipse>
<text xml:space="preserve" text-anchor="middle" x="1306.96" y="-13.8" font-family="Times,serif" font-size="14.00">DeepInvestigationLoopController</text>
</g>
<!-- InvestigationPlannerAgent&#45;&gt;DeepInvestigationLoopController -->
<g id="edge3" class="edge">
<title>InvestigationPlannerAgent-&gt;DeepInvestigationLoopController</title>
<path fill="none" stroke="#cccccc" d="M1083.56,-2416C1100.99,-2410.66 1117.01,-2401.87 1129.05,-2388 1214.57,-2289.48 1079.45,-138.46 1165.05,-40 1167.18,-37.54 1169.47,-35.28 1171.89,-33.2"></path>
<polygon fill="#cccccc" stroke="#cccccc" points="1173.93,-36.04 1179.95,-27.33 1169.81,-30.39 1173.93,-36.04"></polygon>
</g>
<!-- load_tool_registry -->
<g id="node11" class="node">
<title>load_tool_registry</title>
<path fill="none" stroke="#cccccc" d="M1363.03,-2433C1363.03,-2433 1250.88,-2433 1250.88,-2433 1244.88,-2433 1238.88,-2427 1238.88,-2421 1238.88,-2421 1238.88,-2409 1238.88,-2409 1238.88,-2403 1244.88,-2397 1250.88,-2397 1250.88,-2397 1363.03,-2397 1363.03,-2397 1369.03,-2397 1375.03,-2403 1375.03,-2409 1375.03,-2409 1375.03,-2421 1375.03,-2421 1375.03,-2427 1369.03,-2433 1363.03,-2433"></path>
<text xml:space="preserve" text-anchor="middle" x="1306.96" y="-2410.8" font-family="Times,serif" font-size="14.00" fill="#cccccc">🔧 load_tool_registry</text>
</g>
<!-- InvestigationPlannerAgent&#45;&gt;load_tool_registry -->
<g id="edge10" class="edge">
<title>InvestigationPlannerAgent-&gt;load_tool_registry</title>
<path fill="none" stroke="#cccccc" d="M1083.48,-2415C1135.88,-2415 1194.63,-2415 1238.59,-2415"></path>
</g>
<!-- ReportAgent -->
<g id="node5" class="node">
<title>ReportAgent</title>
<ellipse fill="none" stroke="#cccccc" cx="377.26" cy="-70" rx="72.99" ry="18"></ellipse>
<text xml:space="preserve" text-anchor="middle" x="377.26" y="-65.8" font-family="Times,serif" font-size="14.00" fill="#cccccc">🤖 ReportAgent</text>
</g>
<!-- DeepInvestigationLoopController&#45;&gt;ReportAgent -->
<g id="edge4" class="edge">
<title>DeepInvestigationLoopController-&gt;ReportAgent</title>
<path fill="none" stroke="#cccccc" d="M1165.15,-16.51C1009.51,-16.26 751.58,-20.01 530.76,-43 502.45,-45.95 471.47,-51.08 444.87,-56.08"></path>
<polygon fill="#cccccc" stroke="#cccccc" points="444.41,-52.6 435.25,-57.92 445.73,-59.48 444.41,-52.6"></polygon>
</g>
<!-- SaveReportAgent -->
<g id="node6" class="node">
<title>SaveReportAgent</title>
<ellipse fill="none" stroke="#cccccc" cx="639.64" cy="-70" rx="91.76" ry="18"></ellipse>
<text xml:space="preserve" text-anchor="middle" x="639.64" y="-65.8" font-family="Times,serif" font-size="14.00" fill="#cccccc">🤖 SaveReportAgent</text>
</g>
<!-- ReportAgent&#45;&gt;SaveReportAgent -->
<g id="edge5" class="edge">
<title>ReportAgent-&gt;SaveReportAgent</title>
<path fill="none" stroke="#cccccc" d="M450.44,-70C477.02,-70 507.64,-70 536.37,-70"></path>
<polygon fill="#cccccc" stroke="#cccccc" points="536.18,-73.5 546.18,-70 536.18,-66.5 536.18,-73.5"></polygon>
</g>
<!-- investigation_summary_reports_write_file -->
<g id="node53" class="node">
<title>investigation_summary_reports_write_file</title>
<path fill="none" stroke="#cccccc" d="M1080.89,-88C1080.89,-88 832.67,-88 832.67,-88 826.67,-88 820.67,-82 820.67,-76 820.67,-76 820.67,-64 820.67,-64 820.67,-58 826.67,-52 832.67,-52 832.67,-52 1080.89,-52 1080.89,-52 1086.89,-52 1092.89,-58 1092.89,-64 1092.89,-64 1092.89,-76 1092.89,-76 1092.89,-82 1086.89,-88 1080.89,-88"></path>
<text xml:space="preserve" text-anchor="middle" x="956.78" y="-65.8" font-family="Times,serif" font-size="14.00" fill="#cccccc">🔧 investigation_summary_reports_write_file</text>
</g>
<!-- SaveReportAgent&#45;&gt;investigation_summary_reports_write_file -->
<g id="edge52" class="edge">
<title>SaveReportAgent-&gt;investigation_summary_reports_write_file</title>
<path fill="none" stroke="#cccccc" d="M731.79,-70C759.42,-70 790.39,-70 820.27,-70"></path>
</g>
<!-- DeepInvestigationAgent -->
<g id="node12" class="node">
<title>DeepInvestigationAgent</title>
<ellipse fill="#0f5223" stroke="#0f5223" cx="377.26" cy="-1177" rx="117.5" ry="18"></ellipse>
<text xml:space="preserve" text-anchor="middle" x="377.26" y="-1172.8" font-family="Times,serif" font-size="14.00" fill="#cccccc">🤖 DeepInvestigationAgent</text>
</g>
<!-- DeepInvestigationAgent&#45;&gt;DeepInvestigationAgent -->
<g id="edge11" class="edge">
<title>DeepInvestigationAgent-&gt;DeepInvestigationAgent</title>
<path fill="none" stroke="#cccccc" d="M331.14,-1193.66C320.89,-1203.62 336.26,-1213 377.26,-1213 401.28,-1213 416.51,-1209.78 422.93,-1205.11"></path>
<polygon fill="#cccccc" stroke="#cccccc" points="426.43,-1205.31 423.32,-1195.18 419.43,-1205.03 426.43,-1205.31"></polygon>
</g>
<!-- init_deep_state -->
<g id="node13" class="node">
<title>init_deep_state</title>
<path fill="none" stroke="#cccccc" d="M686.76,-142C686.76,-142 592.51,-142 592.51,-142 586.51,-142 580.51,-136 580.51,-130 580.51,-130 580.51,-118 580.51,-118 580.51,-112 586.51,-106 592.51,-106 592.51,-106 686.76,-106 686.76,-106 692.76,-106 698.76,-112 698.76,-118 698.76,-118 698.76,-130 698.76,-130 698.76,-136 692.76,-142 686.76,-142"></path>
<text xml:space="preserve" text-anchor="middle" x="639.64" y="-119.8" font-family="Times,serif" font-size="14.00" fill="#cccccc">🔧 init_deep_state</text>
</g>
<!-- DeepInvestigationAgent&#45;&gt;init_deep_state -->
<g id="edge12" class="edge">
<title>DeepInvestigationAgent-&gt;init_deep_state</title>
<path fill="none" stroke="#cccccc" d="M479.37,-1167.73C485.11,-1164.34 490.34,-1160.15 494.76,-1155 567.53,-1070.35 460.51,-237.75 530.76,-151 542.79,-136.15 561.65,-128.74 580.26,-125.25"></path>
</g>
<!-- append_investigation_state -->
<g id="node14" class="node">
<title>append_investigation_state</title>
<path fill="none" stroke="#cccccc" d="M720.59,-196C720.59,-196 558.68,-196 558.68,-196 552.68,-196 546.68,-190 546.68,-184 546.68,-184 546.68,-172 546.68,-172 546.68,-166 552.68,-160 558.68,-160 558.68,-160 720.59,-160 720.59,-160 726.59,-160 732.59,-166 732.59,-172 732.59,-172 732.59,-184 732.59,-184 732.59,-190 726.59,-196 720.59,-196"></path>
<text xml:space="preserve" text-anchor="middle" x="639.64" y="-173.8" font-family="Times,serif" font-size="14.00" fill="#cccccc">🔧 append_investigation_state</text>
</g>
<!-- DeepInvestigationAgent&#45;&gt;append_investigation_state -->
<g id="edge13" class="edge">
<title>DeepInvestigationAgent-&gt;append_investigation_state</title>
<path fill="none" stroke="#cccccc" d="M479.1,-1167.87C484.95,-1164.46 490.26,-1160.22 494.76,-1155 563.7,-1074.96 464.2,-287.02 530.76,-205 535.14,-199.6 540.42,-195.19 546.27,-191.59"></path>
</g>
<!-- exit_loop -->
<g id="node15" class="node">
<title>exit_loop</title>
<path fill="none" stroke="#cccccc" d="M670.83,-250C670.83,-250 608.45,-250 608.45,-250 602.45,-250 596.45,-244 596.45,-238 596.45,-238 596.45,-226 596.45,-226 596.45,-220 602.45,-214 608.45,-214 608.45,-214 670.83,-214 670.83,-214 676.83,-214 682.83,-220 682.83,-226 682.83,-226 682.83,-238 682.83,-238 682.83,-244 676.83,-250 670.83,-250"></path>
<text xml:space="preserve" text-anchor="middle" x="639.64" y="-227.8" font-family="Times,serif" font-size="14.00" fill="#cccccc">🔧 exit_loop</text>
</g>
<!-- DeepInvestigationAgent&#45;&gt;exit_loop -->
<g id="edge14" class="edge">
<title>DeepInvestigationAgent-&gt;exit_loop</title>
<path fill="none" stroke="#cccccc" d="M479.09,-1167.86C484.94,-1164.45 490.26,-1160.22 494.76,-1155 559.87,-1079.58 467.89,-336.3 530.76,-259 546.3,-239.9 573.11,-233.13 596.12,-231.15"></path>
</g>
<!-- get_alert_signature -->
<g id="node16" class="node">
<title>get_alert_signature</title>
<path fill="none" stroke="#cccccc" d="M698.03,-304C698.03,-304 581.24,-304 581.24,-304 575.24,-304 569.24,-298 569.24,-292 569.24,-292 569.24,-280 569.24,-280 569.24,-274 575.24,-268 581.24,-268 581.24,-268 698.03,-268 698.03,-268 704.03,-268 710.03,-274 710.03,-280 710.03,-280 710.03,-292 710.03,-292 710.03,-298 704.03,-304 698.03,-304"></path>
<text xml:space="preserve" text-anchor="middle" x="639.64" y="-281.8" font-family="Times,serif" font-size="14.00" fill="#cccccc">🔧 get_alert_signature</text>
</g>
<!-- DeepInvestigationAgent&#45;&gt;get_alert_signature -->
<g id="edge15" class="edge">
<title>DeepInvestigationAgent-&gt;get_alert_signature</title>
<path fill="none" stroke="#cccccc" d="M479.07,-1167.85C484.92,-1164.44 490.25,-1160.21 494.76,-1155 556.05,-1084.2 471.58,-385.57 530.76,-313 540.34,-301.26 554.19,-294.17 568.79,-290"></path>
</g>
<!-- get_cve -->
<g id="node17" class="node">
<title>get_cve</title>
<path fill="none" stroke="#cccccc" d="M666.15,-358C666.15,-358 613.12,-358 613.12,-358 607.12,-358 601.12,-352 601.12,-346 601.12,-346 601.12,-334 601.12,-334 601.12,-328 607.12,-322 613.12,-322 613.12,-322 666.15,-322 666.15,-322 672.15,-322 678.15,-328 678.15,-334 678.15,-334 678.15,-346 678.15,-346 678.15,-352 672.15,-358 666.15,-358"></path>
<text xml:space="preserve" text-anchor="middle" x="639.64" y="-335.8" font-family="Times,serif" font-size="14.00" fill="#cccccc">🔧 get_cve</text>
</g>
<!-- DeepInvestigationAgent&#45;&gt;get_cve -->
<g id="edge16" class="edge">
<title>DeepInvestigationAgent-&gt;get_cve</title>
<path fill="none" stroke="#cccccc" d="M479.06,-1167.83C484.91,-1164.43 490.24,-1160.21 494.76,-1155 552.22,-1088.81 475.27,-434.84 530.76,-367 547.39,-346.68 576.79,-340.33 600.71,-338.84"></path>
</g>
<!-- get_attacker_src_ip -->
<g id="node18" class="node">
<title>get_attacker_src_ip</title>
<path fill="none" stroke="#cccccc" d="M699.19,-412C699.19,-412 580.08,-412 580.08,-412 574.08,-412 568.08,-406 568.08,-400 568.08,-400 568.08,-388 568.08,-388 568.08,-382 574.08,-376 580.08,-376 580.08,-376 699.19,-376 699.19,-376 705.19,-376 711.19,-382 711.19,-388 711.19,-388 711.19,-400 711.19,-400 711.19,-406 705.19,-412 699.19,-412"></path>
<text xml:space="preserve" text-anchor="middle" x="639.64" y="-389.8" font-family="Times,serif" font-size="14.00" fill="#cccccc">🔧 get_attacker_src_ip</text>
</g>
<!-- DeepInvestigationAgent&#45;&gt;get_attacker_src_ip -->
<g id="edge17" class="edge">
<title>DeepInvestigationAgent-&gt;get_attacker_src_ip</title>
<path fill="none" stroke="#cccccc" d="M479.04,-1167.82C484.89,-1164.42 490.23,-1160.2 494.76,-1155 548.39,-1093.43 478.96,-484.12 530.76,-421 540.13,-409.58 553.54,-402.58 567.72,-398.37"></path>
</g>
<!-- get_attacker_asn -->
<g id="node19" class="node">
<title>get_attacker_asn</title>
<path fill="none" stroke="#cccccc" d="M691.42,-466C691.42,-466 587.86,-466 587.86,-466 581.86,-466 575.86,-460 575.86,-454 575.86,-454 575.86,-442 575.86,-442 575.86,-436 581.86,-430 587.86,-430 587.86,-430 691.42,-430 691.42,-430 697.42,-430 703.42,-436 703.42,-442 703.42,-442 703.42,-454 703.42,-454 703.42,-460 697.42,-466 691.42,-466"></path>
<text xml:space="preserve" text-anchor="middle" x="639.64" y="-443.8" font-family="Times,serif" font-size="14.00" fill="#cccccc">🔧 get_attacker_asn</text>
</g>
<!-- DeepInvestigationAgent&#45;&gt;get_attacker_asn -->
<g id="edge18" class="edge">
<title>DeepInvestigationAgent-&gt;get_attacker_asn</title>
<path fill="none" stroke="#cccccc" d="M479.01,-1167.8C484.88,-1164.4 490.22,-1160.19 494.76,-1155 594.37,-1041.09 434.53,-591.78 530.76,-475 541.87,-461.52 558.61,-454.19 575.61,-450.36"></path>
</g>
<!-- get_input_passwords -->
<g id="node20" class="node">
<title>get_input_passwords</title>
<path fill="none" stroke="#cccccc" d="M703.49,-520C703.49,-520 575.78,-520 575.78,-520 569.78,-520 563.78,-514 563.78,-508 563.78,-508 563.78,-496 563.78,-496 563.78,-490 569.78,-484 575.78,-484 575.78,-484 703.49,-484 703.49,-484 709.49,-484 715.49,-490 715.49,-496 715.49,-496 715.49,-508 715.49,-508 715.49,-514 709.49,-520 703.49,-520"></path>
<text xml:space="preserve" text-anchor="middle" x="639.64" y="-497.8" font-family="Times,serif" font-size="14.00" fill="#cccccc">🔧 get_input_passwords</text>
</g>
<!-- DeepInvestigationAgent&#45;&gt;get_input_passwords -->
<g id="edge19" class="edge">
<title>DeepInvestigationAgent-&gt;get_input_passwords</title>
<path fill="none" stroke="#cccccc" d="M478.99,-1167.77C484.86,-1164.38 490.21,-1160.18 494.76,-1155 586.73,-1050.32 441.91,-636.33 530.76,-529 539.2,-518.81 550.84,-512.14 563.37,-507.84"></path>
</g>
<!-- get_input_usernames -->
<g id="node21" class="node">
<title>get_input_usernames</title>
<path fill="none" stroke="#cccccc" d="M703.87,-574C703.87,-574 575.4,-574 575.4,-574 569.4,-574 563.4,-568 563.4,-562 563.4,-562 563.4,-550 563.4,-550 563.4,-544 569.4,-538 575.4,-538 575.4,-538 703.87,-538 703.87,-538 709.87,-538 715.87,-544 715.87,-550 715.87,-550 715.87,-562 715.87,-562 715.87,-568 709.87,-574 703.87,-574"></path>
<text xml:space="preserve" text-anchor="middle" x="639.64" y="-551.8" font-family="Times,serif" font-size="14.00" fill="#cccccc">🔧 get_input_usernames</text>
</g>
<!-- DeepInvestigationAgent&#45;&gt;get_input_usernames -->
<g id="edge20" class="edge">
<title>DeepInvestigationAgent-&gt;get_input_usernames</title>
<path fill="none" stroke="#cccccc" d="M478.95,-1167.74C484.83,-1164.36 490.2,-1160.17 494.76,-1155 579.08,-1059.54 449.28,-680.89 530.76,-583 539.16,-572.91 550.71,-566.28 563.14,-561.97"></path>
</g>
<!-- get_alert_category -->
<g id="node22" class="node">
<title>get_alert_category</title>
<path fill="none" stroke="#cccccc" d="M696.47,-628C696.47,-628 582.8,-628 582.8,-628 576.8,-628 570.8,-622 570.8,-616 570.8,-616 570.8,-604 570.8,-604 570.8,-598 576.8,-592 582.8,-592 582.8,-592 696.47,-592 696.47,-592 702.47,-592 708.47,-598 708.47,-604 708.47,-604 708.47,-616 708.47,-616 708.47,-622 702.47,-628 696.47,-628"></path>
<text xml:space="preserve" text-anchor="middle" x="639.64" y="-605.8" font-family="Times,serif" font-size="14.00" fill="#cccccc">🔧 get_alert_category</text>
</g>
<!-- DeepInvestigationAgent&#45;&gt;get_alert_category -->
<g id="edge21" class="edge">
<title>DeepInvestigationAgent-&gt;get_alert_category</title>
<path fill="none" stroke="#cccccc" d="M478.92,-1167.71C484.8,-1164.33 490.18,-1160.15 494.76,-1155 571.43,-1068.77 456.65,-725.44 530.76,-637 540.81,-625.01 555.29,-617.91 570.41,-613.8"></path>
</g>
<!-- get_total_attacks -->
<g id="node23" class="node">
<title>get_total_attacks</title>
<path fill="none" stroke="#cccccc" d="M691.82,-682C691.82,-682 587.46,-682 587.46,-682 581.46,-682 575.46,-676 575.46,-670 575.46,-670 575.46,-658 575.46,-658 575.46,-652 581.46,-646 587.46,-646 587.46,-646 691.82,-646 691.82,-646 697.82,-646 703.82,-652 703.82,-658 703.82,-658 703.82,-670 703.82,-670 703.82,-676 697.82,-682 691.82,-682"></path>
<text xml:space="preserve" text-anchor="middle" x="639.64" y="-659.8" font-family="Times,serif" font-size="14.00" fill="#cccccc">🔧 get_total_attacks</text>
</g>
<!-- DeepInvestigationAgent&#45;&gt;get_total_attacks -->
<g id="edge22" class="edge">
<title>DeepInvestigationAgent-&gt;get_total_attacks</title>
<path fill="none" stroke="#cccccc" d="M478.87,-1167.67C484.77,-1164.3 490.16,-1160.13 494.76,-1155 563.79,-1077.99 464.02,-770 530.76,-691 541.85,-677.87 558.27,-670.61 574.97,-666.72"></path>
</g>
<!-- get_top_countries -->
<g id="node24" class="node">
<title>get_top_countries</title>
<path fill="none" stroke="#cccccc" d="M694.54,-736C694.54,-736 584.73,-736 584.73,-736 578.73,-736 572.73,-730 572.73,-724 572.73,-724 572.73,-712 572.73,-712 572.73,-706 578.73,-700 584.73,-700 584.73,-700 694.54,-700 694.54,-700 700.54,-700 706.54,-706 706.54,-712 706.54,-712 706.54,-724 706.54,-724 706.54,-730 700.54,-736 694.54,-736"></path>
<text xml:space="preserve" text-anchor="middle" x="639.64" y="-713.8" font-family="Times,serif" font-size="14.00" fill="#cccccc">🔧 get_top_countries</text>
</g>
<!-- DeepInvestigationAgent&#45;&gt;get_top_countries -->
<g id="edge23" class="edge">
<title>DeepInvestigationAgent-&gt;get_top_countries</title>
<path fill="none" stroke="#cccccc" d="M478.81,-1167.61C484.72,-1164.26 490.13,-1160.11 494.76,-1155 556.15,-1087.2 471.38,-814.57 530.76,-745 541.29,-732.67 556.52,-725.52 572.24,-721.48"></path>
</g>
<!-- get_src_ip_reputation -->
<g id="node25" class="node">
<title>get_src_ip_reputation</title>
<path fill="none" stroke="#cccccc" d="M705.43,-790C705.43,-790 573.85,-790 573.85,-790 567.85,-790 561.85,-784 561.85,-778 561.85,-778 561.85,-766 561.85,-766 561.85,-760 567.85,-754 573.85,-754 573.85,-754 705.43,-754 705.43,-754 711.43,-754 717.43,-760 717.43,-766 717.43,-766 717.43,-778 717.43,-778 717.43,-784 711.43,-790 705.43,-790"></path>
<text xml:space="preserve" text-anchor="middle" x="639.64" y="-767.8" font-family="Times,serif" font-size="14.00" fill="#cccccc">🔧 get_src_ip_reputation</text>
</g>
<!-- DeepInvestigationAgent&#45;&gt;get_src_ip_reputation -->
<g id="edge24" class="edge">
<title>DeepInvestigationAgent-&gt;get_src_ip_reputation</title>
<path fill="none" stroke="#cccccc" d="M478.47,-1167.69C484.5,-1164.33 490.03,-1160.16 494.76,-1155 548.52,-1096.41 478.74,-859.14 530.76,-799 538.91,-789.58 549.8,-783.2 561.53,-778.91"></path>
</g>
<!-- get_p0f_os_distribution -->
<g id="node26" class="node">
<title>get_p0f_os_distribution</title>
<path fill="none" stroke="#cccccc" d="M711.27,-844C711.27,-844 568,-844 568,-844 562,-844 556,-838 556,-832 556,-832 556,-820 556,-820 556,-814 562,-808 568,-808 568,-808 711.27,-808 711.27,-808 717.27,-808 723.27,-814 723.27,-820 723.27,-820 723.27,-832 723.27,-832 723.27,-838 717.27,-844 711.27,-844"></path>
<text xml:space="preserve" text-anchor="middle" x="639.64" y="-821.8" font-family="Times,serif" font-size="14.00" fill="#cccccc">🔧 get_p0f_os_distribution</text>
</g>
<!-- DeepInvestigationAgent&#45;&gt;get_p0f_os_distribution -->
<g id="edge25" class="edge">
<title>DeepInvestigationAgent-&gt;get_p0f_os_distribution</title>
<path fill="none" stroke="#cccccc" d="M478.37,-1167.6C484.42,-1164.26 489.99,-1160.11 494.76,-1155 587.04,-1056.23 441.42,-954.44 530.76,-853 537.59,-845.25 546.27,-839.56 555.74,-835.41"></path>
</g>
<!-- get_country_to_port -->
<g id="node27" class="node">
<title>get_country_to_port</title>
<path fill="none" stroke="#cccccc" d="M701.54,-898C701.54,-898 577.73,-898 577.73,-898 571.73,-898 565.73,-892 565.73,-886 565.73,-886 565.73,-874 565.73,-874 565.73,-868 571.73,-862 577.73,-862 577.73,-862 701.54,-862 701.54,-862 707.54,-862 713.54,-868 713.54,-874 713.54,-874 713.54,-886 713.54,-886 713.54,-892 707.54,-898 701.54,-898"></path>
<text xml:space="preserve" text-anchor="middle" x="639.64" y="-875.8" font-family="Times,serif" font-size="14.00" fill="#cccccc">🔧 get_country_to_port</text>
</g>
<!-- DeepInvestigationAgent&#45;&gt;get_country_to_port -->
<g id="edge26" class="edge">
<title>DeepInvestigationAgent-&gt;get_country_to_port</title>
<path fill="none" stroke="#cccccc" d="M478.22,-1167.46C484.31,-1164.15 489.92,-1160.05 494.76,-1155 571.83,-1074.59 456.09,-989.63 530.76,-907 539.95,-896.83 552.34,-890.22 565.45,-885.99"></path>
</g>
<!-- custom_basic_search -->
<g id="node28" class="node">
<title>custom_basic_search</title>
<path fill="none" stroke="#cccccc" d="M703.87,-952C703.87,-952 575.41,-952 575.41,-952 569.41,-952 563.41,-946 563.41,-940 563.41,-940 563.41,-928 563.41,-928 563.41,-922 569.41,-916 575.41,-916 575.41,-916 703.87,-916 703.87,-916 709.87,-916 715.87,-922 715.87,-928 715.87,-928 715.87,-940 715.87,-940 715.87,-946 709.87,-952 703.87,-952"></path>
<text xml:space="preserve" text-anchor="middle" x="639.64" y="-929.8" font-family="Times,serif" font-size="14.00" fill="#cccccc">🔧 custom_basic_search</text>
</g>
<!-- DeepInvestigationAgent&#45;&gt;custom_basic_search -->
<g id="edge27" class="edge">
<title>DeepInvestigationAgent-&gt;custom_basic_search</title>
<path fill="none" stroke="#cccccc" d="M477.73,-1167.39C483.97,-1164.1 489.75,-1160.03 494.76,-1155 556.67,-1092.89 470.7,-1024.89 530.76,-961 539.49,-951.72 550.89,-945.42 563,-941.2"></path>
</g>
<!-- two_level_terms_aggregated -->
<g id="node29" class="node">
<title>two_level_terms_aggregated</title>
<path fill="none" stroke="#cccccc" d="M725.25,-1006C725.25,-1006 554.03,-1006 554.03,-1006 548.03,-1006 542.03,-1000 542.03,-994 542.03,-994 542.03,-982 542.03,-982 542.03,-976 548.03,-970 554.03,-970 554.03,-970 725.25,-970 725.25,-970 731.25,-970 737.25,-976 737.25,-982 737.25,-982 737.25,-994 737.25,-994 737.25,-1000 731.25,-1006 725.25,-1006"></path>
<text xml:space="preserve" text-anchor="middle" x="639.64" y="-983.8" font-family="Times,serif" font-size="14.00" fill="#cccccc">🔧 two_level_terms_aggregated</text>
</g>
<!-- DeepInvestigationAgent&#45;&gt;two_level_terms_aggregated -->
<g id="edge28" class="edge">
<title>DeepInvestigationAgent-&gt;two_level_terms_aggregated</title>
<path fill="none" stroke="#cccccc" d="M477.07,-1167.13C483.51,-1163.92 489.51,-1159.93 494.76,-1155 541.65,-1111.07 485.19,-1060.28 530.76,-1015 534.19,-1011.6 537.97,-1008.6 542.01,-1005.97"></path>
</g>
<!-- complete_custom_search -->
<g id="node30" class="node">
<title>complete_custom_search</title>
<path fill="none" stroke="#cccccc" d="M715.14,-1060C715.14,-1060 564.14,-1060 564.14,-1060 558.14,-1060 552.14,-1054 552.14,-1048 552.14,-1048 552.14,-1036 552.14,-1036 552.14,-1030 558.14,-1024 564.14,-1024 564.14,-1024 715.14,-1024 715.14,-1024 721.14,-1024 727.14,-1030 727.14,-1036 727.14,-1036 727.14,-1048 727.14,-1048 727.14,-1054 721.14,-1060 715.14,-1060"></path>
<text xml:space="preserve" text-anchor="middle" x="639.64" y="-1037.8" font-family="Times,serif" font-size="14.00" fill="#cccccc">🔧 complete_custom_search</text>
</g>
<!-- DeepInvestigationAgent&#45;&gt;complete_custom_search -->
<g id="edge29" class="edge">
<title>DeepInvestigationAgent-&gt;complete_custom_search</title>
<path fill="none" stroke="#cccccc" d="M475.17,-1166.77C482.2,-1163.66 488.84,-1159.79 494.76,-1155 526.97,-1128.93 499.33,-1096 530.76,-1069 536.99,-1063.65 544.12,-1059.34 551.68,-1055.86"></path>
</g>
<!-- match_query -->
<g id="node31" class="node">
<title>match_query</title>
<path fill="none" stroke="#cccccc" d="M680.93,-1114C680.93,-1114 598.35,-1114 598.35,-1114 592.35,-1114 586.35,-1108 586.35,-1102 586.35,-1102 586.35,-1090 586.35,-1090 586.35,-1084 592.35,-1078 598.35,-1078 598.35,-1078 680.93,-1078 680.93,-1078 686.93,-1078 692.93,-1084 692.93,-1090 692.93,-1090 692.93,-1102 692.93,-1102 692.93,-1108 686.93,-1114 680.93,-1114"></path>
<text xml:space="preserve" text-anchor="middle" x="639.64" y="-1091.8" font-family="Times,serif" font-size="14.00" fill="#cccccc">🔧 match_query</text>
</g>
<!-- DeepInvestigationAgent&#45;&gt;match_query -->
<g id="edge30" class="edge">
<title>DeepInvestigationAgent-&gt;match_query</title>
<path fill="none" stroke="#cccccc" d="M467.98,-1165.21C477.26,-1162.49 486.36,-1159.13 494.76,-1155 513.98,-1145.56 511.83,-1133 530.76,-1123 547.75,-1114.03 567.83,-1107.95 586.03,-1103.88"></path>
</g>
<!-- tanner_unifrom_resource_search -->
<g id="node32" class="node">
<title>tanner_unifrom_resource_search</title>
<path fill="none" stroke="#cccccc" d="M736.51,-1168C736.51,-1168 542.76,-1168 542.76,-1168 536.76,-1168 530.76,-1162 530.76,-1156 530.76,-1156 530.76,-1144 530.76,-1144 530.76,-1138 536.76,-1132 542.76,-1132 542.76,-1132 736.51,-1132 736.51,-1132 742.51,-1132 748.51,-1138 748.51,-1144 748.51,-1144 748.51,-1156 748.51,-1156 748.51,-1162 742.51,-1168 736.51,-1168"></path>
<text xml:space="preserve" text-anchor="middle" x="639.64" y="-1145.8" font-family="Times,serif" font-size="14.00" fill="#cccccc">🔧 tanner_unifrom_resource_search</text>
</g>
<!-- DeepInvestigationAgent&#45;&gt;tanner_unifrom_resource_search -->
<g id="edge31" class="edge">
<title>DeepInvestigationAgent-&gt;tanner_unifrom_resource_search</title>
<path fill="none" stroke="#cccccc" d="M475.96,-1166.87C493.7,-1165.03 512.31,-1163.1 530.35,-1161.23"></path>
</g>
<!-- redis_duration_and_bytes -->
<g id="node33" class="node">
<title>redis_duration_and_bytes</title>
<path fill="none" stroke="#cccccc" d="M716.7,-1222C716.7,-1222 562.57,-1222 562.57,-1222 556.57,-1222 550.57,-1216 550.57,-1210 550.57,-1210 550.57,-1198 550.57,-1198 550.57,-1192 556.57,-1186 562.57,-1186 562.57,-1186 716.7,-1186 716.7,-1186 722.7,-1186 728.7,-1192 728.7,-1198 728.7,-1198 728.7,-1210 728.7,-1210 728.7,-1216 722.7,-1222 716.7,-1222"></path>
<text xml:space="preserve" text-anchor="middle" x="639.64" y="-1199.8" font-family="Times,serif" font-size="14.00" fill="#cccccc">🔧 redis_duration_and_bytes</text>
</g>
<!-- DeepInvestigationAgent&#45;&gt;redis_duration_and_bytes -->
<g id="edge32" class="edge">
<title>DeepInvestigationAgent-&gt;redis_duration_and_bytes</title>
<path fill="none" stroke="#cccccc" d="M475.96,-1187.13C500.34,-1189.66 526.35,-1192.36 550.26,-1194.84"></path>
</g>
<!-- adbhoney_input -->
<g id="node34" class="node">
<title>adbhoney_input</title>
<path fill="none" stroke="#cccccc" d="M689.49,-1276C689.49,-1276 589.78,-1276 589.78,-1276 583.78,-1276 577.78,-1270 577.78,-1264 577.78,-1264 577.78,-1252 577.78,-1252 577.78,-1246 583.78,-1240 589.78,-1240 589.78,-1240 689.49,-1240 689.49,-1240 695.49,-1240 701.49,-1246 701.49,-1252 701.49,-1252 701.49,-1264 701.49,-1264 701.49,-1270 695.49,-1276 689.49,-1276"></path>
<text xml:space="preserve" text-anchor="middle" x="639.64" y="-1253.8" font-family="Times,serif" font-size="14.00" fill="#cccccc">🔧 adbhoney_input</text>
</g>
<!-- DeepInvestigationAgent&#45;&gt;adbhoney_input -->
<g id="edge33" class="edge">
<title>DeepInvestigationAgent-&gt;adbhoney_input</title>
<path fill="none" stroke="#cccccc" d="M467.98,-1188.79C477.26,-1191.51 486.36,-1194.87 494.76,-1199 513.98,-1208.44 511.83,-1221 530.76,-1231 545.1,-1238.57 561.65,-1244.08 577.4,-1248.07"></path>
</g>
<!-- adbhoney_malware_samples -->
<g id="node35" class="node">
<title>adbhoney_malware_samples</title>
<path fill="none" stroke="#cccccc" d="M725.25,-1330C725.25,-1330 554.03,-1330 554.03,-1330 548.03,-1330 542.03,-1324 542.03,-1318 542.03,-1318 542.03,-1306 542.03,-1306 542.03,-1300 548.03,-1294 554.03,-1294 554.03,-1294 725.25,-1294 725.25,-1294 731.25,-1294 737.25,-1300 737.25,-1306 737.25,-1306 737.25,-1318 737.25,-1318 737.25,-1324 731.25,-1330 725.25,-1330"></path>
<text xml:space="preserve" text-anchor="middle" x="639.64" y="-1307.8" font-family="Times,serif" font-size="14.00" fill="#cccccc">🔧 adbhoney_malware_samples</text>
</g>
<!-- DeepInvestigationAgent&#45;&gt;adbhoney_malware_samples -->
<g id="edge34" class="edge">
<title>DeepInvestigationAgent-&gt;adbhoney_malware_samples</title>
<path fill="none" stroke="#cccccc" d="M475.17,-1187.23C482.2,-1190.34 488.84,-1194.21 494.76,-1199 526.97,-1225.07 499.33,-1258 530.76,-1285 534.5,-1288.21 538.56,-1291.05 542.84,-1293.55"></path>
</g>
<!-- conpot_input -->
<g id="node36" class="node">
<title>conpot_input</title>
<path fill="none" stroke="#cccccc" d="M681.33,-1384C681.33,-1384 597.95,-1384 597.95,-1384 591.95,-1384 585.95,-1378 585.95,-1372 585.95,-1372 585.95,-1360 585.95,-1360 585.95,-1354 591.95,-1348 597.95,-1348 597.95,-1348 681.33,-1348 681.33,-1348 687.33,-1348 693.33,-1354 693.33,-1360 693.33,-1360 693.33,-1372 693.33,-1372 693.33,-1378 687.33,-1384 681.33,-1384"></path>
<text xml:space="preserve" text-anchor="middle" x="639.64" y="-1361.8" font-family="Times,serif" font-size="14.00" fill="#cccccc">🔧 conpot_input</text>
</g>
<!-- DeepInvestigationAgent&#45;&gt;conpot_input -->
<g id="edge35" class="edge">
<title>DeepInvestigationAgent-&gt;conpot_input</title>
<path fill="none" stroke="#cccccc" d="M477.07,-1186.87C483.51,-1190.08 489.51,-1194.07 494.76,-1199 541.65,-1242.93 485.19,-1293.72 530.76,-1339 545.21,-1353.36 566.07,-1360.46 585.61,-1363.86"></path>
</g>
<!-- kibanna_discover_query -->
<g id="node37" class="node">
<title>kibanna_discover_query</title>
<path fill="none" stroke="#cccccc" d="M713.2,-1438C713.2,-1438 566.08,-1438 566.08,-1438 560.08,-1438 554.08,-1432 554.08,-1426 554.08,-1426 554.08,-1414 554.08,-1414 554.08,-1408 560.08,-1402 566.08,-1402 566.08,-1402 713.2,-1402 713.2,-1402 719.2,-1402 725.2,-1408 725.2,-1414 725.2,-1414 725.2,-1426 725.2,-1426 725.2,-1432 719.2,-1438 713.2,-1438"></path>
<text xml:space="preserve" text-anchor="middle" x="639.64" y="-1415.8" font-family="Times,serif" font-size="14.00" fill="#cccccc">🔧 kibanna_discover_query</text>
</g>
<!-- DeepInvestigationAgent&#45;&gt;kibanna_discover_query -->
<g id="edge36" class="edge">
<title>DeepInvestigationAgent-&gt;kibanna_discover_query</title>
<path fill="none" stroke="#cccccc" d="M477.73,-1186.61C483.97,-1189.9 489.75,-1193.97 494.76,-1199 556.67,-1261.11 470.7,-1329.11 530.76,-1393 537.24,-1399.89 545.19,-1405.14 553.82,-1409.11"></path>
</g>
<!-- suricata_lenient_phrase_search -->
<g id="node38" class="node">
<title>suricata_lenient_phrase_search</title>
<path fill="none" stroke="#cccccc" d="M731.85,-1492C731.85,-1492 547.43,-1492 547.43,-1492 541.43,-1492 535.43,-1486 535.43,-1480 535.43,-1480 535.43,-1468 535.43,-1468 535.43,-1462 541.43,-1456 547.43,-1456 547.43,-1456 731.85,-1456 731.85,-1456 737.85,-1456 743.85,-1462 743.85,-1468 743.85,-1468 743.85,-1480 743.85,-1480 743.85,-1486 737.85,-1492 731.85,-1492"></path>
<text xml:space="preserve" text-anchor="middle" x="639.64" y="-1469.8" font-family="Times,serif" font-size="14.00" fill="#cccccc">🔧 suricata_lenient_phrase_search</text>
</g>
<!-- DeepInvestigationAgent&#45;&gt;suricata_lenient_phrase_search -->
<g id="edge37" class="edge">
<title>DeepInvestigationAgent-&gt;suricata_lenient_phrase_search</title>
<path fill="none" stroke="#cccccc" d="M478.22,-1186.54C484.31,-1189.85 489.92,-1193.95 494.76,-1199 571.83,-1279.41 456.09,-1364.37 530.76,-1447 533.74,-1450.29 537.05,-1453.21 540.62,-1455.8"></path>
</g>
<!-- suricata_cve_samples -->
<g id="node39" class="node">
<title>suricata_cve_samples</title>
<path fill="none" stroke="#cccccc" d="M705.42,-1546C705.42,-1546 573.86,-1546 573.86,-1546 567.86,-1546 561.86,-1540 561.86,-1534 561.86,-1534 561.86,-1522 561.86,-1522 561.86,-1516 567.86,-1510 573.86,-1510 573.86,-1510 705.42,-1510 705.42,-1510 711.42,-1510 717.42,-1516 717.42,-1522 717.42,-1522 717.42,-1534 717.42,-1534 717.42,-1540 711.42,-1546 705.42,-1546"></path>
<text xml:space="preserve" text-anchor="middle" x="639.64" y="-1523.8" font-family="Times,serif" font-size="14.00" fill="#cccccc">🔧 suricata_cve_samples</text>
</g>
<!-- DeepInvestigationAgent&#45;&gt;suricata_cve_samples -->
<g id="edge38" class="edge">
<title>DeepInvestigationAgent-&gt;suricata_cve_samples</title>
<path fill="none" stroke="#cccccc" d="M478.37,-1186.4C484.42,-1189.74 489.99,-1193.89 494.76,-1199 587.04,-1297.77 441.42,-1399.56 530.76,-1501 538.93,-1510.27 549.75,-1516.6 561.4,-1520.87"></path>
</g>
<!-- src_ip_to_http_url -->
<g id="node40" class="node">
<title>src_ip_to_http_url</title>
<path fill="none" stroke="#cccccc" d="M696.1,-1600C696.1,-1600 583.17,-1600 583.17,-1600 577.17,-1600 571.17,-1594 571.17,-1588 571.17,-1588 571.17,-1576 571.17,-1576 571.17,-1570 577.17,-1564 583.17,-1564 583.17,-1564 696.1,-1564 696.1,-1564 702.1,-1564 708.1,-1570 708.1,-1576 708.1,-1576 708.1,-1588 708.1,-1588 708.1,-1594 702.1,-1600 696.1,-1600"></path>
<text xml:space="preserve" text-anchor="middle" x="639.64" y="-1577.8" font-family="Times,serif" font-size="14.00" fill="#cccccc">🔧 src_ip_to_http_url</text>
</g>
<!-- DeepInvestigationAgent&#45;&gt;src_ip_to_http_url -->
<g id="edge39" class="edge">
<title>DeepInvestigationAgent-&gt;src_ip_to_http_url</title>
<path fill="none" stroke="#cccccc" d="M478.47,-1186.31C484.5,-1189.67 490.03,-1193.84 494.76,-1199 548.52,-1257.59 478.74,-1494.86 530.76,-1555 541.06,-1566.9 555.73,-1573.96 570.95,-1578.05"></path>
</g>
<!-- suricata_signature_samples -->
<g id="node41" class="node">
<title>suricata_signature_samples</title>
<path fill="none" stroke="#cccccc" d="M721.36,-1654C721.36,-1654 557.91,-1654 557.91,-1654 551.91,-1654 545.91,-1648 545.91,-1642 545.91,-1642 545.91,-1630 545.91,-1630 545.91,-1624 551.91,-1618 557.91,-1618 557.91,-1618 721.36,-1618 721.36,-1618 727.36,-1618 733.36,-1624 733.36,-1630 733.36,-1630 733.36,-1642 733.36,-1642 733.36,-1648 727.36,-1654 721.36,-1654"></path>
<text xml:space="preserve" text-anchor="middle" x="639.64" y="-1631.8" font-family="Times,serif" font-size="14.00" fill="#cccccc">🔧 suricata_signature_samples</text>
</g>
<!-- DeepInvestigationAgent&#45;&gt;suricata_signature_samples -->
<g id="edge40" class="edge">
<title>DeepInvestigationAgent-&gt;suricata_signature_samples</title>
<path fill="none" stroke="#cccccc" d="M478.81,-1186.39C484.72,-1189.74 490.13,-1193.89 494.76,-1199 556.15,-1266.8 471.38,-1539.43 530.76,-1609 535.02,-1613.99 540.06,-1618.14 545.58,-1621.57"></path>
</g>
<!-- top_src_ips_for_cve -->
<g id="node42" class="node">
<title>top_src_ips_for_cve</title>
<path fill="none" stroke="#cccccc" d="M701.54,-1708C701.54,-1708 577.74,-1708 577.74,-1708 571.74,-1708 565.74,-1702 565.74,-1696 565.74,-1696 565.74,-1684 565.74,-1684 565.74,-1678 571.74,-1672 577.74,-1672 577.74,-1672 701.54,-1672 701.54,-1672 707.54,-1672 713.54,-1678 713.54,-1684 713.54,-1684 713.54,-1696 713.54,-1696 713.54,-1702 707.54,-1708 701.54,-1708"></path>
<text xml:space="preserve" text-anchor="middle" x="639.64" y="-1685.8" font-family="Times,serif" font-size="14.00" fill="#cccccc">🔧 top_src_ips_for_cve</text>
</g>
<!-- DeepInvestigationAgent&#45;&gt;top_src_ips_for_cve -->
<g id="edge41" class="edge">
<title>DeepInvestigationAgent-&gt;top_src_ips_for_cve</title>
<path fill="none" stroke="#cccccc" d="M478.87,-1186.33C484.77,-1189.7 490.16,-1193.87 494.76,-1199 563.79,-1276.01 464.02,-1584 530.76,-1663 539.73,-1673.62 552.19,-1680.4 565.46,-1684.66"></path>
</g>
<!-- top_suricata_signatures -->
<g id="node43" class="node">
<title>top_suricata_signatures</title>
<path fill="none" stroke="#cccccc" d="M710.48,-1762C710.48,-1762 568.79,-1762 568.79,-1762 562.79,-1762 556.79,-1756 556.79,-1750 556.79,-1750 556.79,-1738 556.79,-1738 556.79,-1732 562.79,-1726 568.79,-1726 568.79,-1726 710.48,-1726 710.48,-1726 716.48,-1726 722.48,-1732 722.48,-1738 722.48,-1738 722.48,-1750 722.48,-1750 722.48,-1756 716.48,-1762 710.48,-1762"></path>
<text xml:space="preserve" text-anchor="middle" x="639.64" y="-1739.8" font-family="Times,serif" font-size="14.00" fill="#cccccc">🔧 top_suricata_signatures</text>
</g>
<!-- DeepInvestigationAgent&#45;&gt;top_suricata_signatures -->
<g id="edge42" class="edge">
<title>DeepInvestigationAgent-&gt;top_suricata_signatures</title>
<path fill="none" stroke="#cccccc" d="M478.92,-1186.29C484.8,-1189.67 490.18,-1193.85 494.76,-1199 571.43,-1285.23 456.65,-1628.56 530.76,-1717 537.64,-1725.21 546.61,-1731.13 556.44,-1735.37"></path>
</g>
<!-- web_path_samples -->
<g id="node44" class="node">
<title>web_path_samples</title>
<path fill="none" stroke="#cccccc" d="M697.65,-1816C697.65,-1816 581.62,-1816 581.62,-1816 575.62,-1816 569.62,-1810 569.62,-1804 569.62,-1804 569.62,-1792 569.62,-1792 569.62,-1786 575.62,-1780 581.62,-1780 581.62,-1780 697.65,-1780 697.65,-1780 703.65,-1780 709.65,-1786 709.65,-1792 709.65,-1792 709.65,-1804 709.65,-1804 709.65,-1810 703.65,-1816 697.65,-1816"></path>
<text xml:space="preserve" text-anchor="middle" x="639.64" y="-1793.8" font-family="Times,serif" font-size="14.00" fill="#cccccc">🔧 web_path_samples</text>
</g>
<!-- DeepInvestigationAgent&#45;&gt;web_path_samples -->
<g id="edge43" class="edge">
<title>DeepInvestigationAgent-&gt;web_path_samples</title>
<path fill="none" stroke="#cccccc" d="M478.95,-1186.26C484.83,-1189.64 490.2,-1193.83 494.76,-1199 579.08,-1294.46 449.28,-1673.11 530.76,-1771 540.52,-1782.72 554.53,-1789.78 569.23,-1793.94"></path>
</g>
<!-- events_for_src_ip -->
<g id="node45" class="node">
<title>events_for_src_ip</title>
<path fill="none" stroke="#cccccc" d="M694.54,-1870C694.54,-1870 584.74,-1870 584.74,-1870 578.74,-1870 572.74,-1864 572.74,-1858 572.74,-1858 572.74,-1846 572.74,-1846 572.74,-1840 578.74,-1834 584.74,-1834 584.74,-1834 694.54,-1834 694.54,-1834 700.54,-1834 706.54,-1840 706.54,-1846 706.54,-1846 706.54,-1858 706.54,-1858 706.54,-1864 700.54,-1870 694.54,-1870"></path>
<text xml:space="preserve" text-anchor="middle" x="639.64" y="-1847.8" font-family="Times,serif" font-size="14.00" fill="#cccccc">🔧 events_for_src_ip</text>
</g>
<!-- DeepInvestigationAgent&#45;&gt;events_for_src_ip -->
<g id="edge44" class="edge">
<title>DeepInvestigationAgent-&gt;events_for_src_ip</title>
<path fill="none" stroke="#cccccc" d="M478.99,-1186.23C484.86,-1189.62 490.21,-1193.82 494.76,-1199 586.73,-1303.68 441.91,-1717.67 530.76,-1825 541.17,-1837.57 556.45,-1844.78 572.27,-1848.8"></path>
</g>
<!-- first_last_seen_src_ip -->
<g id="node46" class="node">
<title>first_last_seen_src_ip</title>
<path fill="none" stroke="#cccccc" d="M705.43,-1924C705.43,-1924 573.85,-1924 573.85,-1924 567.85,-1924 561.85,-1918 561.85,-1912 561.85,-1912 561.85,-1900 561.85,-1900 561.85,-1894 567.85,-1888 573.85,-1888 573.85,-1888 705.43,-1888 705.43,-1888 711.43,-1888 717.43,-1894 717.43,-1900 717.43,-1900 717.43,-1912 717.43,-1912 717.43,-1918 711.43,-1924 705.43,-1924"></path>
<text xml:space="preserve" text-anchor="middle" x="639.64" y="-1901.8" font-family="Times,serif" font-size="14.00" fill="#cccccc">🔧 first_last_seen_src_ip</text>
</g>
<!-- DeepInvestigationAgent&#45;&gt;first_last_seen_src_ip -->
<g id="edge45" class="edge">
<title>DeepInvestigationAgent-&gt;first_last_seen_src_ip</title>
<path fill="none" stroke="#cccccc" d="M479.01,-1186.2C484.88,-1189.6 490.22,-1193.81 494.76,-1199 594.37,-1312.91 434.53,-1762.22 530.76,-1879 538.74,-1888.68 549.63,-1895.19 561.42,-1899.51"></path>
</g>
<!-- top_http_urls_for_src_ip -->
<g id="node47" class="node">
<title>top_http_urls_for_src_ip</title>
<path fill="none" stroke="#cccccc" d="M713.99,-1978C713.99,-1978 565.28,-1978 565.28,-1978 559.28,-1978 553.28,-1972 553.28,-1966 553.28,-1966 553.28,-1954 553.28,-1954 553.28,-1948 559.28,-1942 565.28,-1942 565.28,-1942 713.99,-1942 713.99,-1942 719.99,-1942 725.99,-1948 725.99,-1954 725.99,-1954 725.99,-1966 725.99,-1966 725.99,-1972 719.99,-1978 713.99,-1978"></path>
<text xml:space="preserve" text-anchor="middle" x="639.64" y="-1955.8" font-family="Times,serif" font-size="14.00" fill="#cccccc">🔧 top_http_urls_for_src_ip</text>
</g>
<!-- DeepInvestigationAgent&#45;&gt;top_http_urls_for_src_ip -->
<g id="edge46" class="edge">
<title>DeepInvestigationAgent-&gt;top_http_urls_for_src_ip</title>
<path fill="none" stroke="#cccccc" d="M479.04,-1186.18C484.89,-1189.58 490.23,-1193.8 494.76,-1199 548.39,-1260.57 478.96,-1869.88 530.76,-1933 536.76,-1940.31 544.42,-1945.81 552.88,-1949.93"></path>
</g>
<!-- timeline_counts -->
<g id="node48" class="node">
<title>timeline_counts</title>
<path fill="none" stroke="#cccccc" d="M689.1,-2032C689.1,-2032 590.17,-2032 590.17,-2032 584.17,-2032 578.17,-2026 578.17,-2020 578.17,-2020 578.17,-2008 578.17,-2008 578.17,-2002 584.17,-1996 590.17,-1996 590.17,-1996 689.1,-1996 689.1,-1996 695.1,-1996 701.1,-2002 701.1,-2008 701.1,-2008 701.1,-2020 701.1,-2020 701.1,-2026 695.1,-2032 689.1,-2032"></path>
<text xml:space="preserve" text-anchor="middle" x="639.64" y="-2009.8" font-family="Times,serif" font-size="14.00" fill="#cccccc">🔧 timeline_counts</text>
</g>
<!-- DeepInvestigationAgent&#45;&gt;timeline_counts -->
<g id="edge47" class="edge">
<title>DeepInvestigationAgent-&gt;timeline_counts</title>
<path fill="none" stroke="#cccccc" d="M479.06,-1186.17C484.91,-1189.57 490.24,-1193.79 494.76,-1199 552.22,-1265.19 475.27,-1919.16 530.76,-1987 542.31,-2001.12 560.04,-2008.5 577.8,-2012.18"></path>
</g>
<!-- top_dest_ports_for_cve -->
<g id="node49" class="node">
<title>top_dest_ports_for_cve</title>
<path fill="none" stroke="#cccccc" d="M710.48,-2086C710.48,-2086 568.79,-2086 568.79,-2086 562.79,-2086 556.79,-2080 556.79,-2074 556.79,-2074 556.79,-2062 556.79,-2062 556.79,-2056 562.79,-2050 568.79,-2050 568.79,-2050 710.48,-2050 710.48,-2050 716.48,-2050 722.48,-2056 722.48,-2062 722.48,-2062 722.48,-2074 722.48,-2074 722.48,-2080 716.48,-2086 710.48,-2086"></path>
<text xml:space="preserve" text-anchor="middle" x="639.64" y="-2063.8" font-family="Times,serif" font-size="14.00" fill="#cccccc">🔧 top_dest_ports_for_cve</text>
</g>
<!-- DeepInvestigationAgent&#45;&gt;top_dest_ports_for_cve -->
<g id="edge48" class="edge">
<title>DeepInvestigationAgent-&gt;top_dest_ports_for_cve</title>
<path fill="none" stroke="#cccccc" d="M479.07,-1186.15C484.92,-1189.56 490.25,-1193.79 494.76,-1199 556.05,-1269.8 471.58,-1968.43 530.76,-2041 537.6,-2049.38 546.6,-2055.38 556.5,-2059.65"></path>
</g>
<!-- field_presence_check -->
<g id="node50" class="node">
<title>field_presence_check</title>
<path fill="none" stroke="#cccccc" d="M705.02,-2140C705.02,-2140 574.26,-2140 574.26,-2140 568.26,-2140 562.26,-2134 562.26,-2128 562.26,-2128 562.26,-2116 562.26,-2116 562.26,-2110 568.26,-2104 574.26,-2104 574.26,-2104 705.02,-2104 705.02,-2104 711.02,-2104 717.02,-2110 717.02,-2116 717.02,-2116 717.02,-2128 717.02,-2128 717.02,-2134 711.02,-2140 705.02,-2140"></path>
<text xml:space="preserve" text-anchor="middle" x="639.64" y="-2117.8" font-family="Times,serif" font-size="14.00" fill="#cccccc">🔧 field_presence_check</text>
</g>
<!-- DeepInvestigationAgent&#45;&gt;field_presence_check -->
<g id="edge49" class="edge">
<title>DeepInvestigationAgent-&gt;field_presence_check</title>
<path fill="none" stroke="#cccccc" d="M479.09,-1186.14C484.94,-1189.55 490.26,-1193.78 494.76,-1199 559.87,-1274.42 467.89,-2017.7 530.76,-2095 538.8,-2104.88 549.87,-2111.47 561.86,-2115.79"></path>
</g>
<!-- conpot_protocol -->
<g id="node51" class="node">
<title>conpot_protocol</title>
<path fill="none" stroke="#cccccc" d="M690.27,-2194C690.27,-2194 589.01,-2194 589.01,-2194 583.01,-2194 577.01,-2188 577.01,-2182 577.01,-2182 577.01,-2170 577.01,-2170 577.01,-2164 583.01,-2158 589.01,-2158 589.01,-2158 690.27,-2158 690.27,-2158 696.27,-2158 702.27,-2164 702.27,-2170 702.27,-2170 702.27,-2182 702.27,-2182 702.27,-2188 696.27,-2194 690.27,-2194"></path>
<text xml:space="preserve" text-anchor="middle" x="639.64" y="-2171.8" font-family="Times,serif" font-size="14.00" fill="#cccccc">🔧 conpot_protocol</text>
</g>
<!-- DeepInvestigationAgent&#45;&gt;conpot_protocol -->
<g id="edge50" class="edge">
<title>DeepInvestigationAgent-&gt;conpot_protocol</title>
<path fill="none" stroke="#cccccc" d="M479.1,-1186.13C484.95,-1189.54 490.26,-1193.78 494.76,-1199 563.7,-1279.04 464.2,-2066.98 530.76,-2149 542.02,-2162.87 559.22,-2170.24 576.61,-2174"></path>
</g>
<!-- search_agent -->
<g id="node52" class="node">
<title>search_agent</title>
<path fill="#0f5223" stroke="#0f5223" d="M680.92,-2248C680.92,-2248 598.35,-2248 598.35,-2248 592.35,-2248 586.35,-2242 586.35,-2236 586.35,-2236 586.35,-2224 586.35,-2224 586.35,-2218 592.35,-2212 598.35,-2212 598.35,-2212 680.92,-2212 680.92,-2212 686.92,-2212 692.92,-2218 692.92,-2224 692.92,-2224 692.92,-2236 692.92,-2236 692.92,-2242 686.92,-2248 680.92,-2248"></path>
<text xml:space="preserve" text-anchor="middle" x="639.64" y="-2225.8" font-family="Times,serif" font-size="14.00" fill="#cccccc">🤖 search_agent</text>
</g>
<!-- DeepInvestigationAgent&#45;&gt;search_agent -->
<g id="edge51" class="edge">
<title>DeepInvestigationAgent-&gt;search_agent</title>
<path fill="none" stroke="#69cb87" d="M479.37,-1186.27C485.11,-1189.66 490.34,-1193.85 494.76,-1199 567.53,-1283.65 460.51,-2116.25 530.76,-2203 541.63,-2216.42 558.06,-2223.75 574.85,-2227.62"></path>
<polygon fill="#69cb87" stroke="#69cb87" points="573.92,-2231.01 584.39,-2229.41 575.21,-2224.13 573.92,-2231.01"></polygon>
</g>
<!-- IvestigationPipelineAgent -->
<g id="node54" class="node">
<title>IvestigationPipelineAgent</title>
<ellipse fill="none" stroke="black" cx="111.88" cy="-1177" rx="111.88" ry="18"></ellipse>
<text xml:space="preserve" text-anchor="middle" x="111.88" y="-1172.8" font-family="Times,serif" font-size="14.00">IvestigationPipelineAgent</text>
</g>
<!-- IvestigationPipelineAgent&#45;&gt;DeepInvestigationAgent -->
<g id="edge53" class="edge">
<title>IvestigationPipelineAgent-&gt;DeepInvestigationAgent</title>
<path fill="none" stroke="#cccccc" d="M224.19,-1177C232.11,-1177 240.14,-1177 248.14,-1177"></path>
<polygon fill="#cccccc" stroke="#cccccc" points="247.92,-1180.5 257.92,-1177 247.92,-1173.5 247.92,-1180.5"></polygon>
</g>
</g>
</svg>
